<svg width="279" height="279" viewBox="0 0 279 279" fill="none" xmlns="http://www.w3.org/2000/svg">
<path d="M5.34859 0.0872138C5.01603 0.195827 4.44592 0.779623 4.34412 1.12583C4.15408 1.76393 4.28982 2.27305 4.7717 2.74824C5.11783 3.10123 5.46397 3.25736 5.89155 3.25736C6.73314 3.25736 7.52043 2.46992 7.52043 1.62816C7.52043 1.2005 7.36433 0.854294 7.01141 0.50809C6.53632 0.0261188 5.97978 -0.109648 5.34859 0.0872138Z" fill="black"/>
<path d="M39.3582 0.236346C38.8153 0.406054 38.3334 1.05773 38.3334 1.62795C38.3334 2.53759 39.27 3.27073 40.1659 3.0535C40.7903 2.90416 41.3197 2.25248 41.3197 1.62795C41.3197 1.02379 40.7971 0.358535 40.1998 0.209192C39.8333 0.114156 39.7315 0.120944 39.3582 0.236346Z" fill="black"/>
<path d="M73.3609 0.372128C72.9469 0.501106 72.628 0.833734 72.499 1.26819C72.404 1.59403 72.404 1.66191 72.499 1.99454C72.5737 2.25249 72.6822 2.42899 72.8655 2.59191C73.6053 3.25716 74.7455 2.93811 75.0238 1.98775C75.1188 1.66191 75.1188 1.59403 75.0238 1.26819C74.8948 0.826945 74.5758 0.501106 74.1347 0.365339C73.7478 0.249938 73.7478 0.249938 73.3609 0.372128Z" fill="black"/>
<path d="M107.595 0.440139C107.561 0.453716 107.445 0.480869 107.343 0.501234C107.113 0.555541 106.773 0.84065 106.631 1.10539C106.509 1.34977 106.495 1.88605 106.61 2.11007C106.841 2.55131 107.228 2.79569 107.696 2.79569C108.368 2.79569 108.864 2.30014 108.864 1.6281C108.864 1.03072 108.47 0.562329 107.866 0.460504C107.757 0.440139 107.635 0.433351 107.595 0.440139Z" fill="black"/>
<path d="M141.102 0.745489C140.22 1.28177 140.6 2.64622 141.631 2.64622C142.208 2.64622 142.65 2.20498 142.65 1.62797C142.65 1.05096 142.208 0.609723 141.631 0.609723C141.448 0.609723 141.238 0.664029 141.102 0.745489Z" fill="black"/>
<path d="M175.112 0.881289C174.535 1.22749 174.562 2.0964 175.152 2.40866C175.566 2.6191 176.075 2.48333 176.313 2.08282C176.788 1.30895 175.885 0.406106 175.112 0.881289Z" fill="black"/>
<path d="M209.196 0.94258C208.924 1.06477 208.789 1.28878 208.789 1.63499C208.789 1.90652 208.823 2.00156 208.979 2.1509C209.135 2.30703 209.223 2.34097 209.501 2.34097C209.78 2.34097 209.868 2.30703 210.024 2.1509C210.18 1.99477 210.214 1.90652 210.214 1.6282C210.214 1.35667 210.18 1.25484 210.038 1.11229C209.847 0.922215 209.433 0.840756 209.196 0.94258Z" fill="black"/>
<path d="M243.165 1.10531C242.812 1.28859 242.744 1.8113 243.036 2.07604C243.24 2.25932 243.667 2.24575 243.857 2.04889C244.061 1.85203 244.068 1.41078 243.878 1.22071C243.701 1.04422 243.375 0.989909 243.165 1.10531Z" fill="black"/>
<path d="M277.181 1.22083C277.1 1.25477 276.998 1.36338 276.964 1.45842C276.822 1.83178 277.168 2.17798 277.541 2.03542C277.894 1.89966 277.894 1.35659 277.541 1.22083C277.439 1.1801 277.358 1.15294 277.351 1.15973C277.344 1.15973 277.27 1.18688 277.181 1.22083Z" fill="black"/>
<path d="M21.9834 15.1084C21.1757 15.3256 20.4834 15.7871 20.0016 16.4251C18.5016 18.4139 19.3907 21.2239 21.773 22.0316C22.3295 22.2217 23.4969 22.2013 24.0466 21.9977C26.551 21.0814 27.2636 17.932 25.3972 16.0586C24.5013 15.1694 23.1575 14.7893 21.9834 15.1084ZM24.2366 15.6989C25.8587 16.4998 26.5239 18.4071 25.7434 19.9954C25.3361 20.837 24.4878 21.5294 23.6394 21.7194C23.1982 21.8212 22.4245 21.8212 22.0444 21.7194C21.1689 21.4886 20.3816 20.8235 19.9608 19.9682C19.7029 19.4524 19.7029 19.4456 19.7029 18.5971C19.7029 17.7487 19.7029 17.7419 19.9608 17.2261C20.2662 16.6084 20.7821 16.0654 21.3522 15.76C21.9087 15.4613 22.1734 15.407 23.0082 15.4342C23.6869 15.4477 23.7683 15.4681 24.2366 15.6989Z" fill="black"/>
<path d="M55.803 15.5021C55.2262 15.6921 54.8257 15.9568 54.371 16.4523C53.5837 17.3075 53.3394 18.4886 53.7059 19.5949C53.9027 20.1651 54.0316 20.3891 54.4456 20.8235C54.8529 21.2579 55.2194 21.4887 55.7963 21.6855C56.6039 21.9502 57.4726 21.8891 58.2735 21.5022C58.6536 21.319 59.3051 20.7217 59.563 20.3076C60.0381 19.561 60.1739 18.5361 59.9092 17.6741C59.7327 17.1039 59.5766 16.8324 59.149 16.3777C58.2667 15.441 57.0043 15.1084 55.803 15.5021ZM57.5066 15.7804C58.6468 16.079 59.4612 16.975 59.6648 18.1628C59.9703 19.9615 58.3957 21.6516 56.5564 21.4954C54.8461 21.3529 53.5973 19.6968 53.9366 18.0406C54.2828 16.398 55.9049 15.3663 57.5066 15.7804Z" fill="black"/>
<path d="M89.9824 15.7733C89.5073 15.909 89.1069 16.1398 88.7268 16.4995C87.5527 17.6059 87.5051 19.3978 88.6114 20.5788C90.1792 22.2554 92.9619 21.5427 93.5524 19.3096C93.8035 18.3729 93.5388 17.3548 92.8465 16.6149C92.1203 15.8344 90.9733 15.5018 89.9824 15.7733ZM91.8488 16.2552C92.3646 16.5063 92.8194 16.9611 93.0773 17.4769C93.2537 17.8503 93.2741 17.9453 93.2741 18.5969C93.2741 19.2485 93.2537 19.3435 93.0773 19.7168C92.8194 20.2327 92.3646 20.6874 91.8488 20.9454C91.4755 21.1218 91.3805 21.1422 90.729 21.1422C90.0774 21.1422 89.9824 21.1218 89.6091 20.9454C89.0933 20.6874 88.6386 20.2327 88.3875 19.7236C88.1363 19.2145 88.0753 18.4068 88.2381 17.8435C88.4621 17.0901 89.1747 16.357 89.9145 16.1194C90.1114 16.0516 90.4371 16.0244 90.8376 16.038C91.3534 16.0516 91.5095 16.0855 91.8488 16.2552Z" fill="black"/>
<path d="M123.904 16.1461C123.408 16.3091 123.116 16.4923 122.777 16.8589C122.092 17.6056 121.922 18.5831 122.302 19.5946C122.404 19.8797 122.56 20.1037 122.859 20.4024C124.413 21.9569 127.019 20.993 127.223 18.7936C127.392 17.015 125.621 15.6031 123.904 16.1461ZM125.383 16.4313C125.77 16.5534 125.906 16.6417 126.266 16.9947C126.619 17.3545 126.707 17.4902 126.829 17.8772C126.91 18.1351 126.971 18.4542 126.971 18.5967C126.971 18.7393 126.91 19.0583 126.829 19.3163C126.707 19.7032 126.619 19.839 126.266 20.1988C125.906 20.5518 125.77 20.64 125.383 20.7622C125.125 20.8437 124.806 20.9048 124.664 20.9048C124.521 20.9048 124.202 20.8437 123.944 20.7622C123.558 20.64 123.422 20.5518 123.062 20.1988C122.709 19.839 122.621 19.7032 122.499 19.3163C122.417 19.0583 122.356 18.7393 122.356 18.5967C122.356 18.4542 122.417 18.1351 122.499 17.8772C122.621 17.4902 122.709 17.3545 123.062 16.9947C123.408 16.6485 123.564 16.5467 123.924 16.4313C124.487 16.2548 124.813 16.2548 125.383 16.4313Z" fill="black"/>
<path d="M158.09 16.4177C157.418 16.601 156.875 17.0355 156.583 17.6396C156.427 17.9587 156.4 18.108 156.4 18.5968C156.393 19.0923 156.42 19.2281 156.583 19.554C156.8 20.0088 157.248 20.4432 157.703 20.6469C157.947 20.7623 158.151 20.7962 158.599 20.7962C159.047 20.7962 159.25 20.7623 159.495 20.6469C159.949 20.4432 160.397 20.0088 160.615 19.554C160.777 19.2281 160.805 19.0856 160.805 18.5968C160.805 18.108 160.777 17.9655 160.615 17.6396C160.397 17.1848 159.943 16.7436 159.495 16.5467C159.149 16.3974 158.422 16.3295 158.09 16.4177ZM159.379 16.7911C159.875 17.0219 160.126 17.2595 160.357 17.7279C160.75 18.5086 160.608 19.3639 159.99 19.9884C158.741 21.2307 156.631 20.355 156.631 18.5968C156.631 17.8161 157.024 17.1916 157.73 16.8386C158.273 16.5671 158.864 16.5467 159.379 16.7911Z" fill="black"/>
<path d="M192.059 16.757C191.509 16.9335 191.095 17.273 190.851 17.7414C190.701 18.0265 190.667 18.1758 190.667 18.5967C190.667 19.0379 190.695 19.1533 190.871 19.4656C191.244 20.1444 191.774 20.4635 192.534 20.4635C193.308 20.4635 193.857 20.1308 194.217 19.4452C194.366 19.1669 194.4 19.0108 194.4 18.5967C194.4 18.1554 194.373 18.04 194.197 17.7278C193.98 17.3273 193.742 17.1033 193.321 16.886C193.023 16.7367 192.337 16.662 192.059 16.757ZM193.274 17.1033C194.292 17.6192 194.516 18.97 193.715 19.7778C193.375 20.1105 193.023 20.253 192.534 20.253C192.045 20.253 191.692 20.1105 191.353 19.7778C190.701 19.1194 190.701 18.074 191.353 17.4155C191.862 16.9132 192.649 16.7842 193.274 17.1033Z" fill="black"/>
<path d="M225.987 17.1239C225.6 17.2664 225.329 17.4905 225.132 17.8367C224.976 18.0946 224.942 18.2372 224.942 18.6037C224.942 18.9839 224.976 19.0993 225.145 19.3844C225.274 19.588 225.478 19.7917 225.682 19.9207C225.973 20.0972 226.082 20.1243 226.476 20.1175C226.862 20.1175 226.985 20.0836 227.256 19.9139C227.46 19.7917 227.663 19.588 227.786 19.3844C227.955 19.1129 227.989 18.9907 227.989 18.6037C227.996 18.21 227.969 18.1014 227.792 17.8095C227.412 17.1986 226.605 16.8931 225.987 17.1239ZM227.066 17.3683C228.111 17.9045 228.071 19.4048 226.998 19.8528C226.523 20.0497 225.899 19.941 225.532 19.5948C225.003 19.1061 224.976 18.1897 225.471 17.6534C225.838 17.2597 226.584 17.1239 227.066 17.3683Z" fill="black"/>
<path d="M260.017 17.4497C259.508 17.5991 259.114 18.2575 259.216 18.7938C259.42 19.8867 260.852 20.165 261.435 19.2215C261.761 18.692 261.578 17.9045 261.055 17.5787C260.784 17.4158 260.316 17.3547 260.017 17.4497ZM261.001 17.728C261.429 17.9928 261.585 18.5562 261.354 19.0314C261.021 19.7238 260.193 19.8731 259.657 19.3369C259.25 18.9228 259.25 18.2643 259.664 17.857C260.024 17.4904 260.54 17.4429 261.001 17.728Z" fill="black"/>
<path d="M5.23311 33.5156C4.27614 33.855 3.76712 34.5746 3.76033 35.5657C3.75354 36.4482 4.20148 37.1541 5.00235 37.5275C5.78285 37.8941 6.79412 37.7108 7.41852 37.093C8.23296 36.2717 8.23296 34.8597 7.41852 34.0383C6.86199 33.4884 5.93217 33.2644 5.23311 33.5156Z" fill="black"/>
<path d="M39.1477 33.7327C38.4283 33.977 37.8582 34.7916 37.8582 35.5655C37.8582 36.3597 38.4758 37.2083 39.2088 37.4255C39.9961 37.6563 40.6272 37.5002 41.1906 36.93C41.4892 36.6381 41.6046 36.4616 41.686 36.1832C41.9168 35.3958 41.7607 34.7645 41.1906 34.2011C40.6137 33.6173 39.935 33.4611 39.1477 33.7327Z" fill="black"/>
<path d="M73.0826 33.9431C71.6574 34.588 71.6438 36.5023 73.0487 37.1676C74.1753 37.7039 75.5192 36.8282 75.5259 35.5655C75.5259 34.6152 74.7115 33.8006 73.7613 33.8006C73.5306 33.8006 73.2727 33.8549 73.0826 33.9431Z" fill="black"/>
<path d="M107.052 34.1333C106.054 34.5881 105.823 35.9458 106.617 36.6993C107.615 37.6428 109.257 36.9369 109.257 35.5656C109.257 35.1651 109.129 34.8257 108.864 34.5338C108.538 34.174 108.172 34.0043 107.696 34.0043C107.479 34.0043 107.208 34.0586 107.052 34.1333Z" fill="black"/>
<path d="M141.034 34.3166C140.729 34.4728 140.356 34.9276 140.301 35.2059C140.186 35.8372 140.396 36.3667 140.898 36.7333C141.089 36.8623 141.211 36.8894 141.631 36.8894C142.202 36.8894 142.426 36.7808 142.772 36.3328C142.935 36.1155 142.955 36.0273 142.955 35.5657C142.955 35.1041 142.935 35.0158 142.772 34.7986C142.453 34.3845 142.195 34.2487 141.699 34.2216C141.387 34.208 141.19 34.2352 141.034 34.3166Z" fill="black"/>
<path d="M175.465 34.3777C175.431 34.3913 175.315 34.4185 175.213 34.4388C174.983 34.4931 174.643 34.7783 174.501 35.043C174.379 35.2874 174.365 35.8237 174.48 36.0477C174.711 36.4889 175.098 36.7333 175.566 36.7333C176.238 36.7333 176.734 36.2377 176.734 35.5657C176.734 34.9683 176.34 34.4999 175.736 34.3981C175.627 34.3777 175.505 34.371 175.465 34.3777Z" fill="black"/>
<path d="M209.277 34.6087C209.176 34.6291 208.986 34.7309 208.857 34.8395C208.382 35.2197 208.402 35.9257 208.904 36.3329C209.434 36.7538 210.228 36.5094 210.438 35.851C210.669 35.1518 210.01 34.4526 209.277 34.6087Z" fill="black"/>
<path d="M243.097 34.8665C242.452 35.1991 242.534 36.1087 243.233 36.3192C243.592 36.4278 243.959 36.2513 244.142 35.8779C244.258 35.6336 244.264 35.586 244.176 35.3417C244.006 34.8597 243.525 34.6492 243.097 34.8665Z" fill="black"/>
<path d="M277.1 35.0429C276.747 35.2262 276.679 35.7489 276.971 36.0136C277.174 36.1969 277.602 36.1834 277.792 35.9865C277.996 35.7896 278.002 35.3484 277.812 35.1583C277.636 34.9818 277.31 34.9275 277.1 35.0429Z" fill="black"/>
<path d="M21.8748 48.0208C20.2595 48.3738 19.0311 49.4869 18.461 51.1023C18.2981 51.5639 18.2777 51.7132 18.2777 52.5345C18.2777 53.3626 18.2981 53.5051 18.4677 53.9938C18.9632 55.3989 19.9677 56.4102 21.359 56.9057C21.902 57.1025 22.0038 57.1161 22.8589 57.1161C23.6734 57.1161 23.8295 57.0957 24.291 56.9328C24.576 56.831 24.99 56.641 25.2208 56.512C27.2773 55.3038 28.0578 52.6567 26.9922 50.4779C26.0828 48.6113 23.9177 47.5728 21.8748 48.0208ZM23.7548 48.4959C25.5941 48.8828 26.999 50.634 26.999 52.5345C26.999 54.8016 25.1258 56.6749 22.8589 56.6749C20.5853 56.6749 18.7189 54.8083 18.7189 52.5345C18.7189 51.2924 19.3501 49.996 20.307 49.2765C21.3183 48.5095 22.5332 48.2312 23.7548 48.4959Z" fill="black"/>
<path d="M55.9455 48.4351C54.2895 48.7541 52.9593 50.1524 52.6674 51.8764C52.5656 52.4873 52.5656 52.5823 52.6674 53.1932C53.0882 55.6774 55.4637 57.2114 57.9002 56.5733C58.9997 56.2883 60.0177 55.4398 60.5675 54.3538C61.5652 52.3854 60.6896 49.7926 58.6807 48.8084C57.778 48.3604 56.9161 48.2451 55.9455 48.4351ZM57.7034 48.9034C58.9182 49.2225 59.9295 50.1524 60.3503 51.347C60.5335 51.856 60.5743 52.9488 60.425 53.4579C59.9431 55.1344 58.4907 56.2679 56.8278 56.2679C54.7375 56.2679 53.0611 54.6118 53.0611 52.5348C53.0611 50.8515 54.2216 49.3446 55.8505 48.9102C56.3392 48.7813 57.2147 48.7745 57.7034 48.9034Z" fill="black"/>
<path d="M89.7854 48.9034C89.2357 49.0595 88.9099 49.2224 88.4416 49.5753C87.0842 50.607 86.6091 52.5279 87.3285 54.123C87.695 54.9443 88.6113 55.7723 89.4936 56.0778C90.1044 56.2882 91.3193 56.3018 91.8758 56.1049C92.6971 55.8199 93.4029 55.2701 93.878 54.5642C94.5431 53.5528 94.6449 52.1003 94.1291 50.9464C93.7694 50.1455 92.9278 49.3717 92.0455 49.0323C91.455 48.8016 90.3623 48.7405 89.7854 48.9034ZM92.1745 49.5346C92.9007 49.8943 93.4165 50.417 93.7694 51.1568C94.0205 51.6795 94.0205 51.693 94.0205 52.5415V53.3899L93.7355 53.9737C93.0228 55.4126 91.5025 56.1389 89.9551 55.7927C88.8149 55.5348 87.729 54.4488 87.4711 53.3085C87.3761 52.8876 87.3761 52.1817 87.4711 51.7609C87.7154 50.6681 88.6588 49.6771 89.8058 49.297C89.989 49.2427 90.342 49.2156 90.8442 49.2292C91.5772 49.2495 91.6247 49.2631 92.1745 49.5346Z" fill="black"/>
<path d="M123.904 49.3173C123.327 49.453 122.852 49.7177 122.383 50.1725C121.732 50.797 121.406 51.5096 121.365 52.4124C121.325 53.3559 121.684 54.2247 122.397 54.9102C123.7 56.1659 125.634 56.1591 126.944 54.8966C128.281 53.6138 128.322 51.5979 127.039 50.2675C126.612 49.8196 126.069 49.487 125.546 49.3444C125.105 49.2223 124.352 49.2087 123.904 49.3173ZM125.913 49.8739C126.659 50.22 127.134 50.7562 127.46 51.6047C127.616 52.0119 127.643 52.9215 127.508 53.3355C127.08 54.6591 126.028 55.4532 124.671 55.46C123.49 55.4736 122.506 54.8491 122.003 53.7835C121.318 52.3106 121.949 50.5594 123.422 49.8739C124.196 49.5073 125.132 49.5073 125.913 49.8739Z" fill="black"/>
<path d="M157.71 49.8124C157.092 50.0092 156.441 50.5319 156.108 51.1089C155.626 51.9167 155.64 53.159 156.128 53.994C156.312 54.313 156.834 54.8289 157.174 55.0326C157.968 55.4942 159.23 55.4942 160.024 55.0326C160.363 54.8289 160.811 54.3877 161.042 54.0279C161.558 53.2065 161.585 51.9439 161.096 51.1089C160.893 50.7695 160.377 50.2468 160.058 50.0635C159.413 49.6834 158.443 49.5816 157.71 49.8124ZM159.664 50.2264C160.214 50.4776 160.662 50.9324 160.927 51.5027C161.11 51.9032 161.137 52.0321 161.137 52.5345C161.137 53.0368 161.11 53.1658 160.927 53.5663C160.655 54.1501 160.214 54.5913 159.63 54.8629C159.23 55.0462 159.101 55.0733 158.599 55.0733C158.097 55.0733 157.968 55.0462 157.567 54.8629C156.984 54.5913 156.542 54.1501 156.271 53.5663C156.088 53.1658 156.061 53.0368 156.061 52.5345C156.061 52.0321 156.088 51.9032 156.271 51.5027C156.61 50.7763 157.282 50.2129 158.036 50.0228C158.47 49.9142 159.196 50.0024 159.664 50.2264Z" fill="black"/>
<path d="M191.916 50.179C191.21 50.3826 190.627 50.885 190.308 51.5774C190.158 51.8896 190.125 52.0593 190.125 52.5345C190.125 53.0504 190.145 53.159 190.342 53.5596C190.606 54.0958 191.034 54.5099 191.57 54.7611C192.12 55.019 192.941 55.019 193.498 54.7611C194.027 54.5167 194.461 54.0958 194.719 53.5663C194.909 53.1794 194.936 53.0572 194.943 52.5413C194.943 52.0118 194.923 51.91 194.726 51.5095C194.319 50.6881 193.572 50.179 192.69 50.1179C192.419 50.1043 192.1 50.1315 191.916 50.179ZM193.43 50.5795C194.217 50.9393 194.672 51.6588 194.672 52.5345C194.672 52.9418 194.638 53.1183 194.495 53.4238C194.122 54.218 193.409 54.6728 192.534 54.6728C192.127 54.6728 191.95 54.6389 191.645 54.4963C190.688 54.0483 190.172 52.9622 190.45 51.9847C190.837 50.6677 192.208 50.0228 193.43 50.5795Z" fill="black"/>
<path d="M225.722 50.6813C225.308 50.8306 224.759 51.3873 224.616 51.815C224.351 52.5888 224.521 53.3831 225.071 53.9329C225.851 54.7136 227.087 54.7136 227.867 53.9329C228.267 53.5324 228.437 53.1115 228.437 52.5345C228.437 51.9575 228.267 51.5366 227.867 51.1361C227.636 50.9121 227.406 50.756 227.188 50.6813C226.774 50.5387 226.13 50.5387 225.722 50.6813ZM227.249 50.9596C227.568 51.1225 227.894 51.4552 228.071 51.7878C228.254 52.1408 228.247 52.9554 228.05 53.322C227.473 54.4081 226.028 54.6185 225.207 53.7428C224.84 53.3559 224.738 53.0979 224.738 52.5345C224.738 51.9711 224.84 51.7131 225.207 51.3262C225.417 51.0954 225.682 50.9325 225.994 50.8306C226.272 50.7356 226.958 50.8103 227.249 50.9596Z" fill="black"/>
<path d="M260.01 51.0341C259.65 51.1292 259.27 51.421 259.074 51.7605C258.917 52.0252 258.883 52.1678 258.883 52.5343C258.877 52.9213 258.904 53.0299 259.08 53.3218C259.209 53.5254 259.413 53.7291 259.616 53.8581C259.902 54.0278 260.017 54.0617 260.404 54.0617C260.791 54.0617 260.906 54.0278 261.191 53.8581C261.395 53.7291 261.598 53.5254 261.727 53.3218C261.897 53.0367 261.931 52.9213 261.931 52.5343C261.931 52.1474 261.897 52.032 261.727 51.7469C261.368 51.1699 260.655 50.8712 260.01 51.0341ZM260.933 51.2785C261.646 51.5772 261.958 52.3986 261.632 53.1113C261.144 54.1771 259.603 54.15 259.148 53.0638C258.951 52.5886 259.06 51.9709 259.406 51.5908C259.759 51.2106 260.431 51.0748 260.933 51.2785Z" fill="black"/>
<path d="M5.23314 66.8897C4.15401 67.1816 3.43458 67.9691 3.23097 69.0959C3.08166 69.8834 3.38708 70.8066 3.99112 71.404C4.58837 72.0081 5.5114 72.3136 6.2987 72.1643C7.50678 71.9402 8.32801 71.1189 8.55198 69.9105C8.70129 69.1299 8.39588 68.1999 7.80541 67.6093C7.42534 67.2291 7.0792 67.0323 6.52267 66.8897C6.04758 66.7675 5.70144 66.7675 5.23314 66.8897Z" fill="black"/>
<path d="M39.0324 67.1816C38.3537 67.426 37.8718 67.8673 37.5664 68.5325C37.4443 68.7973 37.4171 68.9805 37.4171 69.5032C37.4171 70.0599 37.4443 70.2024 37.6004 70.5351C37.8311 71.0306 38.2994 71.499 38.7949 71.7298C39.1274 71.8859 39.27 71.9131 39.8265 71.9131C40.383 71.9131 40.5256 71.8859 40.8581 71.7298C41.3536 71.499 41.8219 71.0306 42.0526 70.5351C42.2087 70.2024 42.2359 70.0599 42.2359 69.5032C42.2359 68.9466 42.2087 68.804 42.0526 68.4714C41.8219 67.9759 41.3468 67.5007 40.8581 67.2767C40.3423 67.0391 39.5414 66.9983 39.0324 67.1816Z" fill="black"/>
<path d="M73.2319 67.3648C72.7297 67.5074 72.5397 67.616 72.18 67.9826C71.3452 68.8243 71.3587 70.2023 72.2071 71.0577C73.5917 72.4425 75.9535 71.465 75.9535 69.5031C75.9535 68.0776 74.5758 66.9915 73.2319 67.3648Z" fill="black"/>
<path d="M107.065 67.6433C106.577 67.7927 105.979 68.3968 105.837 68.8856C105.599 69.6866 105.762 70.3044 106.339 70.8746C106.631 71.1597 106.821 71.2887 107.092 71.3633C107.866 71.5941 108.477 71.4448 109.054 70.8746C109.366 70.5691 109.475 70.4062 109.556 70.1211C109.794 69.3201 109.631 68.7023 109.054 68.1321C108.477 67.5687 107.832 67.4057 107.065 67.6433Z" fill="black"/>
<path d="M140.987 67.9078C140.634 68.0368 140.104 68.5867 140.009 68.9329C139.813 69.6321 139.955 70.2227 140.437 70.6978C140.912 71.1798 141.503 71.3224 142.195 71.1255C142.561 71.0237 143.159 70.4331 143.254 70.0801C143.45 69.3673 143.308 68.7835 142.826 68.3084C142.446 67.9214 142.154 67.806 141.598 67.806C141.414 67.8128 141.136 67.8535 140.987 67.9078Z" fill="black"/>
<path d="M175.098 68.1117C174.711 68.2339 174.311 68.6276 174.175 69.0146C174.046 69.4015 174.046 69.6119 174.175 69.9853C174.426 70.6845 175.159 71.0918 175.878 70.9357C176.523 70.7863 177.059 70.1414 177.059 69.4965C177.059 68.9195 176.578 68.2746 176.014 68.1117C175.614 67.9895 175.492 67.9895 175.098 68.1117Z" fill="black"/>
<path d="M208.992 68.3765C208.884 68.4308 208.707 68.553 208.606 68.6616C207.873 69.4491 208.429 70.7253 209.495 70.7253C210.574 70.7253 211.13 69.4491 210.397 68.6616C210.051 68.2951 209.447 68.1729 208.992 68.3765Z" fill="black"/>
<path d="M243.104 68.5732C242.975 68.6139 242.785 68.7701 242.669 68.9058C242.249 69.4353 242.493 70.2295 243.151 70.44C244.034 70.7251 244.78 69.6593 244.224 68.9262C244.122 68.7972 243.986 68.6614 243.925 68.6275C243.708 68.5121 243.334 68.4849 243.104 68.5732Z" fill="black"/>
<path d="M277.066 68.8178C276.794 68.94 276.659 69.164 276.659 69.5102C276.659 69.7818 276.693 69.8768 276.849 70.0262C277.005 70.1823 277.093 70.2162 277.371 70.2162C277.65 70.2162 277.738 70.1823 277.894 70.0262C278.05 69.87 278.084 69.7818 278.084 69.5035C278.084 69.2319 278.05 69.1301 277.907 68.9875C277.717 68.7975 277.303 68.716 277.066 68.8178Z" fill="black"/>
<path d="M21.9089 80.8793C21.393 80.9811 20.7211 81.2254 20.1782 81.5037C19.6759 81.7616 19.4452 81.9449 18.8886 82.5015C18.3321 83.0581 18.1489 83.2888 17.891 83.7911C17.3616 84.8228 17.2598 85.2436 17.2598 86.4722C17.2598 87.6939 17.3616 88.1148 17.891 89.1533C18.1489 89.6555 18.3321 89.8863 18.8886 90.4497C19.452 91.013 19.6691 91.1827 20.1782 91.4407C21.2166 91.9769 21.6374 92.0719 22.859 92.0719C24.0807 92.0719 24.5015 91.9701 25.5399 91.4407C26.0421 91.1827 26.2729 91.0063 26.8294 90.4429C27.3928 89.8863 27.5692 89.6555 27.8271 89.1533C28.3565 88.1148 28.4583 87.6939 28.4583 86.4722C28.4583 85.2504 28.3633 84.8296 27.8271 83.7911C27.5692 83.282 27.3995 83.0648 26.8362 82.5015C26.2729 81.9449 26.0421 81.7616 25.5399 81.5037C24.5558 81.0014 24.135 80.8928 23.0287 80.8725C22.5061 80.8589 22.0039 80.8657 21.9089 80.8793ZM24.0603 81.558C25.5128 81.8838 26.8362 82.9834 27.4742 84.3952C27.7796 85.0604 27.9018 85.6577 27.9018 86.4722C27.9018 87.2867 27.7796 87.884 27.4742 88.5492C26.8294 89.9678 25.5399 91.0402 24.0264 91.4067C23.4291 91.5493 22.2889 91.5493 21.6917 91.4067C20.1782 91.0402 18.8886 89.9678 18.2439 88.5492C17.9385 87.884 17.8163 87.2867 17.8163 86.4722C17.8163 85.3387 18.1081 84.4223 18.7461 83.5332C19.9474 81.8431 21.9835 81.0829 24.0603 81.558Z" fill="black"/>
<path d="M55.5384 81.5106C53.8145 81.979 52.5182 83.1872 51.9277 84.8773C51.7512 85.3795 51.7377 85.4949 51.7377 86.4723C51.7377 87.4497 51.7512 87.5651 51.9277 88.0674C52.1992 88.848 52.6064 89.486 53.1901 90.0765C53.7806 90.6602 54.4185 91.0675 55.199 91.339C55.7013 91.5155 55.8167 91.529 56.794 91.529C57.7713 91.529 57.8867 91.5155 58.3889 91.339C59.1694 91.0675 59.8074 90.6602 60.3979 90.0765C60.9816 89.486 61.3888 88.848 61.6603 88.0674C61.8367 87.5651 61.8503 87.4497 61.8503 86.4723C61.8503 85.4949 61.8367 85.3795 61.6603 84.8773C61.3888 84.0967 60.9816 83.4587 60.3979 82.8682C59.8074 82.2776 59.1626 81.8772 58.3889 81.6125C57.6491 81.3613 56.2714 81.3138 55.5384 81.5106ZM57.7509 81.9926C58.545 82.1487 59.5359 82.6985 60.0992 83.289C60.649 83.8795 61.0969 84.7076 61.2802 85.5085C61.3888 85.9836 61.3684 87.0628 61.2463 87.5651C60.839 89.1738 59.5156 90.5041 57.9138 90.9182C57.3845 91.0539 56.2103 91.0539 55.6741 90.9182C54.0656 90.5041 52.7625 89.2009 52.3485 87.5923C52.2128 87.0493 52.2128 85.8818 52.3485 85.3524C52.9797 82.9564 55.3212 81.5039 57.7509 81.9926Z" fill="black"/>
<path d="M90.186 81.9315C87.9056 82.1894 86.1681 84.1374 86.1681 86.4316C86.1681 88.2439 87.1318 89.805 88.7268 90.5788C89.4123 90.9046 89.9756 91.0335 90.7357 91.0335C93.2809 91.0335 95.2898 89.0244 95.2898 86.4791C95.2966 83.7302 92.9212 81.6192 90.186 81.9315ZM91.9913 82.5763C93.0365 82.9225 93.9256 83.6962 94.3804 84.6465C94.6993 85.3049 94.8147 85.8139 94.8079 86.4927C94.8011 87.6194 94.4007 88.5765 93.6134 89.357C92.8329 90.1444 91.876 90.5448 90.7493 90.5516C89.1815 90.5652 87.7359 89.6828 87.0775 88.2982C86.7586 87.6398 86.65 87.1782 86.65 86.4655C86.6364 84.3546 88.2721 82.5763 90.3896 82.3862C90.7697 82.3523 91.6316 82.4541 91.9913 82.5763Z" fill="black"/>
<path d="M123.917 82.5015C121.773 82.8952 120.313 84.9993 120.693 87.1645C121.073 89.3569 123.164 90.8298 125.363 90.4429C127.684 90.0357 129.157 87.7347 128.566 85.4405C128.044 83.4314 125.98 82.1214 123.917 82.5015ZM125.621 82.9834C126.836 83.3432 127.793 84.3002 128.152 85.5152C128.288 85.9835 128.295 86.8659 128.159 87.3885C127.84 88.5967 126.856 89.6013 125.621 89.961C125.152 90.0967 124.27 90.1035 123.748 89.9678C122.519 89.6488 121.488 88.6171 121.169 87.3885C120.951 86.5401 121.073 85.5423 121.494 84.7482C121.915 83.9405 122.831 83.221 123.72 82.9834C124.216 82.8477 125.159 82.8477 125.621 82.9834Z" fill="black"/>
<path d="M157.886 83.0445C157.323 83.1667 156.936 83.35 156.481 83.6961C154.242 85.4066 154.832 88.875 157.52 89.8049C158.131 90.0153 159.074 90.0153 159.685 89.8049C161.762 89.0922 162.698 86.7709 161.687 84.85C160.961 83.4722 159.373 82.7187 157.886 83.0445ZM159.698 83.5468C160.967 84.0423 161.782 85.2912 161.707 86.6284C161.599 88.3795 160.16 89.6827 158.443 89.5809C156.692 89.4723 155.389 88.0334 155.49 86.3161C155.572 84.9926 156.366 83.9473 157.635 83.5061C158.226 83.2957 159.101 83.316 159.698 83.5468Z" fill="black"/>
<path d="M191.889 83.5807C191.312 83.7233 190.919 83.9405 190.498 84.3409C189.31 85.4745 189.256 87.3003 190.376 88.4813C191.129 89.2755 192.147 89.6013 193.165 89.3637C193.769 89.2212 194.108 89.0379 194.556 88.6239C195.33 87.884 195.642 86.9134 195.425 85.8885C195.296 85.2573 195.113 84.9043 194.665 84.436C194.217 83.9676 193.769 83.7165 193.165 83.5875C192.615 83.4721 192.344 83.4654 191.889 83.5807ZM193.647 84.083C194.21 84.3477 194.658 84.7957 194.93 85.3726C195.126 85.7867 195.147 85.8885 195.147 86.4722C195.147 87.056 195.126 87.1578 194.93 87.5718C194.658 88.1487 194.21 88.5967 193.633 88.8682C193.219 89.0651 193.118 89.0854 192.534 89.0854C191.95 89.0854 191.848 89.0651 191.434 88.8682C190.857 88.5967 190.41 88.1487 190.138 87.5718C189.941 87.1578 189.921 87.056 189.921 86.4722C189.921 85.8885 189.941 85.7867 190.138 85.3726C190.484 84.6396 191.149 84.083 191.903 83.893C192.385 83.7708 193.165 83.859 193.647 84.083Z" fill="black"/>
<path d="M225.94 84.0962C225.241 84.2455 224.569 84.8022 224.243 85.5082C224.1 85.8272 224.066 85.9969 224.066 86.4721C224.06 86.9948 224.08 87.0966 224.277 87.4971C224.541 88.0334 224.969 88.4475 225.505 88.6987C225.831 88.848 225.987 88.882 226.469 88.882C226.951 88.882 227.107 88.848 227.433 88.6987C227.969 88.4475 228.396 88.0334 228.661 87.4971C228.851 87.1034 228.878 86.988 228.878 86.4721C228.878 85.9562 228.851 85.8408 228.661 85.4471C228.152 84.422 227.032 83.8654 225.94 84.0962ZM227.365 84.5171C228.152 84.8768 228.607 85.5964 228.607 86.4721C228.607 86.8794 228.573 87.0559 228.43 87.3614C228.057 88.1556 227.344 88.6104 226.469 88.6104C226.062 88.6104 225.885 88.5765 225.58 88.4339C224.623 87.9859 224.107 86.8998 224.385 85.9222C224.772 84.6053 226.143 83.9604 227.365 84.5171Z" fill="black"/>
<path d="M259.929 84.6323C259.379 84.8088 258.965 85.1483 258.721 85.6167C258.571 85.9018 258.537 86.0511 258.537 86.472C258.537 86.9132 258.565 87.0286 258.741 87.3409C259.114 88.0197 259.644 88.3388 260.404 88.3388C261.177 88.3388 261.727 88.0061 262.087 87.3205C262.236 87.0422 262.27 86.8861 262.27 86.472C262.27 86.0307 262.243 85.9153 262.067 85.6031C261.849 85.2026 261.612 84.9785 261.191 84.7613C260.892 84.612 260.207 84.5373 259.929 84.6323ZM261.144 84.9785C261.734 85.2772 262.06 85.8067 262.06 86.472C262.06 87.4291 261.361 88.1283 260.404 88.1283C259.454 88.1283 258.748 87.4223 258.748 86.472C258.748 85.2297 260.051 84.4151 261.144 84.9785Z" fill="black"/>
<path d="M5.41642 100.224C3.47534 100.597 2.28762 102.389 2.76271 104.215C2.99346 105.104 3.46855 105.749 4.18798 106.183C4.77166 106.529 5.23317 106.658 5.89151 106.658C6.55664 106.658 7.01137 106.529 7.60184 106.177C8.36877 105.715 8.85743 104.989 9.06783 103.998C9.17642 103.475 9.17642 103.407 9.06783 102.885C8.99996 102.586 8.871 102.172 8.77599 101.982C8.42306 101.262 7.724 100.658 6.92314 100.38C6.53628 100.244 5.73541 100.163 5.41642 100.224Z" fill="black"/>
<path d="M38.9781 100.611C38.1705 100.882 37.5121 101.452 37.1592 102.199C36.9556 102.633 36.942 102.701 36.942 103.441C36.942 104.181 36.9556 104.249 37.1592 104.683C37.4443 105.287 37.9804 105.823 38.5845 106.109C39.0188 106.312 39.0867 106.326 39.8265 106.326C40.5663 106.326 40.6341 106.312 41.0685 106.109C41.6726 105.823 42.2087 105.287 42.4938 104.683C42.6974 104.249 42.711 104.181 42.711 103.441C42.711 102.701 42.6974 102.633 42.4938 102.199C42.2087 101.595 41.6726 101.059 41.0685 100.774C40.6613 100.583 40.5256 100.556 39.9283 100.543C39.5007 100.529 39.1478 100.556 38.9781 100.611Z" fill="black"/>
<path d="M73.0488 100.882C72.2547 101.146 71.705 101.628 71.3656 102.341C71.1688 102.755 71.1484 102.857 71.1484 103.441C71.1484 104.025 71.1688 104.126 71.3656 104.54C71.6371 105.117 72.085 105.566 72.6619 105.837C73.0759 106.034 73.1777 106.054 73.7614 106.054C74.3451 106.054 74.4469 106.034 74.8609 105.837C75.4378 105.566 75.8858 105.117 76.1572 104.54C76.3541 104.126 76.3744 104.025 76.3744 103.441C76.3744 102.857 76.3541 102.755 76.1572 102.341C75.7229 101.411 74.8745 100.854 73.8632 100.814C73.5375 100.8 73.2117 100.827 73.0488 100.882Z" fill="black"/>
<path d="M107.086 101.173C106.583 101.309 106.061 101.676 105.769 102.103C105.538 102.45 105.321 103.088 105.321 103.441C105.321 103.794 105.538 104.432 105.769 104.778C106.264 105.498 107.221 105.918 108.049 105.762C108.592 105.661 108.993 105.457 109.352 105.097C109.943 104.513 110.174 103.705 109.977 102.918C109.766 102.049 109.122 101.384 108.273 101.167C107.785 101.044 107.574 101.044 107.086 101.173Z" fill="black"/>
<path d="M141.02 101.466C140.525 101.628 140.036 102.043 139.778 102.524C139.656 102.749 139.629 102.911 139.629 103.441C139.629 104.174 139.731 104.439 140.186 104.887C140.634 105.342 140.898 105.443 141.631 105.443C142.364 105.443 142.629 105.342 143.077 104.887C143.532 104.439 143.633 104.174 143.633 103.441C143.633 102.708 143.532 102.443 143.077 101.995C142.67 101.581 142.358 101.452 141.733 101.432C141.434 101.418 141.116 101.432 141.02 101.466Z" fill="black"/>
<path d="M174.888 101.818C173.462 102.463 173.449 104.377 174.854 105.043C175.98 105.579 177.324 104.703 177.331 103.441C177.331 102.49 176.517 101.676 175.566 101.676C175.336 101.676 175.078 101.73 174.888 101.818Z" fill="black"/>
<path d="M208.992 102.056C208.463 102.253 208.008 102.891 208.008 103.448C208.008 103.76 208.205 104.215 208.463 104.473C208.714 104.731 209.176 104.934 209.501 104.934C209.827 104.934 210.289 104.731 210.54 104.473C210.798 104.215 210.994 103.76 210.994 103.448C210.994 102.878 210.54 102.246 209.983 102.049C209.623 101.927 209.352 101.927 208.992 102.056Z" fill="black"/>
<path d="M243.334 102.253C243.301 102.267 243.185 102.294 243.083 102.314C242.853 102.368 242.513 102.654 242.371 102.918C242.249 103.163 242.235 103.699 242.35 103.923C242.581 104.364 242.968 104.609 243.436 104.609C244.108 104.609 244.604 104.113 244.604 103.441C244.604 102.844 244.21 102.375 243.606 102.273C243.497 102.253 243.375 102.246 243.334 102.253Z" fill="black"/>
<path d="M276.917 102.694C276.34 103.04 276.367 103.909 276.957 104.222C277.371 104.432 277.88 104.296 278.118 103.896C278.593 103.122 277.69 102.219 276.917 102.694Z" fill="black"/>
<path d="M22.2006 113.765C19.7166 113.982 17.4904 115.706 16.5877 118.116C16.0652 119.501 16.0652 121.32 16.5877 122.704C17.4972 125.134 19.6894 126.818 22.2345 127.055C23.4969 127.17 24.6643 126.953 25.8113 126.383C27.8949 125.351 29.293 123.329 29.5034 121.035C29.7885 117.946 27.9017 115.055 24.9629 114.071C24.0942 113.785 23.1847 113.684 22.2006 113.765ZM24.386 114.607C26.0895 115.075 27.5284 116.297 28.2817 117.912C28.7093 118.822 28.7908 119.215 28.7976 120.376C28.7976 121.455 28.7433 121.808 28.4378 122.582C28.1732 123.261 27.7591 123.906 27.2433 124.462C26.6732 125.073 26.1099 125.487 25.3565 125.833C24.4335 126.268 24.0602 126.342 22.8589 126.342C21.6644 126.342 21.2844 126.268 20.3681 125.84C19.0311 125.216 18.0537 124.245 17.4361 122.908C17.0018 121.985 16.9271 121.611 16.9271 120.41C16.9271 119.209 17.0018 118.835 17.4361 117.912C17.8909 116.935 18.6374 116.039 19.4858 115.462C20.1373 115.014 21.169 114.607 21.9427 114.478C22.3635 114.41 23.9788 114.498 24.386 114.607Z" fill="black"/>
<path d="M55.6469 114.471C54.3709 114.763 53.5226 115.204 52.6267 116.059C51.819 116.833 51.3168 117.661 50.9774 118.761C50.8146 119.304 50.7942 119.453 50.7942 120.41C50.801 121.354 50.8146 121.523 50.9774 122.059C51.6222 124.164 53.1629 125.677 55.2668 126.261C55.7148 126.383 55.9795 126.41 56.8278 126.41C57.7373 126.41 57.907 126.39 58.4431 126.227C59.5223 125.894 60.3299 125.412 61.0901 124.639C61.8298 123.885 62.2846 123.111 62.6104 122.059C62.7732 121.523 62.7936 121.354 62.7936 120.444C62.7936 119.596 62.7665 119.331 62.6443 118.883C62.0606 116.779 60.5267 115.218 58.4431 114.6C57.6898 114.376 56.3324 114.315 55.6469 114.471ZM58.2192 115.184C58.4974 115.265 58.9997 115.469 59.339 115.645C59.8345 115.896 60.072 116.08 60.5946 116.609C61.124 117.132 61.3072 117.369 61.5652 117.872C62.0335 118.795 62.1828 119.385 62.1828 120.41C62.1828 121.428 62.0402 122.012 61.5652 122.949C61.3072 123.451 61.124 123.688 60.5946 124.211C60.072 124.74 59.8345 124.924 59.3322 125.182C58.4024 125.657 57.8187 125.799 56.7939 125.799C55.7691 125.799 55.1854 125.657 54.2556 125.182C53.7533 124.924 53.5158 124.74 52.9932 124.211C52.4638 123.688 52.2805 123.451 52.0294 122.955C51.5951 122.107 51.4322 121.489 51.3982 120.58C51.3439 118.971 51.9073 117.607 53.0882 116.494C53.8958 115.72 54.9003 115.218 55.9659 115.048C56.5428 114.96 57.6355 115.028 58.2192 115.184Z" fill="black"/>
<path d="M89.7652 115.082C88.6386 115.299 87.7291 115.788 86.8807 116.65C86.3378 117.2 86.2088 117.383 85.917 117.98C85.469 118.896 85.3401 119.433 85.3401 120.41C85.3401 121.401 85.469 121.931 85.9238 122.854C86.2292 123.478 86.3514 123.648 86.9215 124.218C87.4916 124.788 87.6612 124.91 88.2856 125.216C89.2087 125.67 89.7381 125.799 90.729 125.799C91.7131 125.799 92.2425 125.67 93.1723 125.216C93.8035 124.91 93.9528 124.802 94.5297 124.218C95.0998 123.648 95.2287 123.478 95.5342 122.854C95.9889 121.931 96.1178 121.401 96.1178 120.41C96.1178 119.419 95.9889 118.89 95.5342 117.967C95.2287 117.342 95.1066 117.172 94.5365 116.602C93.9664 116.032 93.7967 115.91 93.1723 115.605C92.7786 115.414 92.2628 115.211 92.0185 115.15C91.3602 114.994 90.3828 114.967 89.7652 115.082ZM92.2832 115.829C93.6745 116.304 94.8419 117.464 95.3102 118.856C95.5342 119.541 95.6156 120.627 95.4799 121.313C94.998 123.784 92.7515 125.453 90.2199 125.222C88.435 125.06 86.8061 123.77 86.1817 122.046C85.2994 119.623 86.5414 116.86 88.9236 115.924C89.677 115.632 89.9009 115.598 90.8647 115.618C91.5841 115.632 91.8013 115.666 92.2832 115.829Z" fill="black"/>
<path d="M123.456 115.794C121.8 116.229 120.47 117.573 120.049 119.229C119.397 121.761 120.951 124.381 123.483 125.025C126.014 125.677 128.634 124.123 129.279 121.591C129.931 119.059 128.376 116.439 125.845 115.794C125.153 115.618 124.134 115.618 123.456 115.794ZM125.953 116.331C127.223 116.731 128.241 117.742 128.722 119.066C128.879 119.5 128.906 119.663 128.906 120.41C128.906 121.157 128.879 121.319 128.722 121.754C128.478 122.439 128.166 122.928 127.677 123.424C127.182 123.912 126.686 124.225 126.008 124.469C125.573 124.625 125.404 124.645 124.664 124.645C123.911 124.652 123.761 124.632 123.32 124.469C122.635 124.225 122.146 123.912 121.65 123.424C120.863 122.636 120.47 121.747 120.408 120.614C120.3 118.584 121.671 116.745 123.687 116.236C124.236 116.1 125.363 116.141 125.953 116.331Z" fill="black"/>
<path d="M157.818 116.337C157.085 116.493 156.305 116.894 155.755 117.396C155.368 117.736 154.92 118.448 154.69 119.052C154.52 119.507 154.5 119.65 154.5 120.41C154.5 121.17 154.52 121.313 154.69 121.767C155.158 123.016 155.986 123.844 157.241 124.319C157.703 124.489 157.832 124.51 158.599 124.51C159.366 124.51 159.495 124.489 159.956 124.319C161.212 123.844 162.04 123.016 162.508 121.767C162.678 121.313 162.698 121.17 162.698 120.41C162.698 119.643 162.678 119.514 162.508 119.052C161.877 117.383 160.492 116.364 158.769 116.297C158.395 116.283 157.968 116.303 157.818 116.337ZM159.617 116.86C160.818 117.186 161.809 118.184 162.162 119.419C162.318 119.948 162.318 120.865 162.169 121.394C161.802 122.643 160.839 123.614 159.597 123.973C159.366 124.041 158.965 124.082 158.599 124.082C157.554 124.082 156.712 123.743 155.993 123.016C155.266 122.297 154.927 121.455 154.927 120.41C154.927 120.043 154.968 119.643 155.036 119.412C155.606 117.437 157.622 116.31 159.617 116.86Z" fill="black"/>
<path d="M191.821 116.975C191.258 117.104 190.871 117.288 190.416 117.634C188.482 119.107 188.604 122.012 190.647 123.356C191.76 124.082 193.308 124.082 194.421 123.356C195.466 122.67 196.022 121.645 196.016 120.41C196.009 119.426 195.703 118.652 195.038 117.966C194.231 117.138 192.914 116.731 191.821 116.975ZM193.633 117.484C194.903 117.98 195.717 119.229 195.642 120.566C195.534 122.317 194.095 123.62 192.378 123.519C190.627 123.41 189.324 121.971 189.425 120.254C189.507 118.93 190.301 117.885 191.57 117.444C192.161 117.233 193.036 117.254 193.633 117.484Z" fill="black"/>
<path d="M225.58 117.688C224.962 117.885 224.311 118.407 223.978 118.984C223.496 119.792 223.51 121.034 223.998 121.869C224.182 122.188 224.704 122.704 225.044 122.908C225.838 123.369 227.1 123.369 227.894 122.908C228.233 122.704 228.681 122.263 228.912 121.903C229.428 121.082 229.455 119.819 228.966 118.984C228.763 118.645 228.247 118.122 227.928 117.939C227.283 117.559 226.313 117.457 225.58 117.688ZM227.534 118.102C228.084 118.353 228.532 118.808 228.797 119.378C228.98 119.778 229.007 119.907 229.007 120.41C229.007 120.912 228.98 121.041 228.797 121.442C228.525 122.025 228.084 122.467 227.5 122.738C227.1 122.921 226.971 122.949 226.469 122.949C225.967 122.949 225.838 122.921 225.451 122.738C224.806 122.433 224.48 122.12 224.182 121.516C223.951 121.041 223.931 120.96 223.931 120.417C223.931 119.907 223.958 119.778 224.141 119.385C224.256 119.134 224.46 118.815 224.596 118.665C224.874 118.353 225.519 117.986 225.939 117.898C226.415 117.796 227.066 117.878 227.534 118.102Z" fill="black"/>
<path d="M259.657 118.305C258.09 118.889 257.662 120.912 258.884 122.032C259.352 122.473 259.718 122.609 260.404 122.609C260.852 122.609 261.055 122.575 261.3 122.46C261.754 122.256 262.202 121.822 262.42 121.367C262.582 121.041 262.61 120.898 262.61 120.41C262.61 119.921 262.582 119.778 262.42 119.453C262.202 118.998 261.748 118.557 261.3 118.36C260.831 118.156 260.126 118.129 259.657 118.305ZM261.273 118.652C262.454 119.242 262.739 120.715 261.87 121.747C261.768 121.862 261.503 122.059 261.273 122.168C260.282 122.663 259.141 122.277 258.646 121.279C258.252 120.498 258.395 119.643 259.013 119.018C259.427 118.611 259.807 118.455 260.411 118.448C260.777 118.441 260.926 118.475 261.273 118.652Z" fill="black"/>
<path d="M5.45031 133.618C4.60194 133.747 3.82822 134.134 3.23775 134.725C2.50475 135.458 2.13147 136.354 2.13147 137.379C2.13147 138.404 2.50475 139.3 3.23775 140.033C3.97075 140.766 4.86663 141.139 5.89147 141.139C6.9163 141.139 7.81219 140.766 8.54518 140.033C9.27818 139.3 9.65146 138.404 9.65146 137.379C9.65146 135.702 8.55197 134.243 6.92988 133.761C6.54302 133.646 5.77609 133.571 5.45031 133.618Z" fill="black"/>
<path d="M39.3853 133.964C38.9984 134.012 38.3401 134.263 37.9464 134.521C37.1659 135.023 36.6501 135.817 36.4533 136.822C36.3515 137.331 36.3515 137.426 36.4533 137.935C36.9148 140.277 39.2699 141.465 41.3875 140.419C42.3105 139.971 42.9824 139.048 43.1996 137.935C43.3014 137.426 43.3014 137.331 43.1996 136.822C42.9417 135.498 42.1069 134.528 40.892 134.127C40.4848 133.992 39.7993 133.917 39.3853 133.964Z" fill="black"/>
<path d="M73.2863 134.324C71.9018 134.576 70.9312 135.573 70.7005 136.985C70.4901 138.295 71.352 139.761 72.6076 140.236C73.6664 140.637 74.7659 140.494 75.6278 139.836C77.0734 138.736 77.2567 136.632 76.0215 135.268C75.3903 134.569 74.1958 134.155 73.2863 134.324Z" fill="black"/>
<path d="M107.276 134.67C106.142 134.826 105.151 135.824 104.995 136.971C104.737 138.811 106.264 140.338 108.104 140.08C109.257 139.924 110.242 138.94 110.398 137.786C110.547 136.72 110.099 135.688 109.237 135.118C108.64 134.724 107.995 134.575 107.276 134.67Z" fill="black"/>
<path d="M141.238 135.009C139.948 135.22 139.066 136.455 139.27 137.759C139.521 139.354 141.279 140.25 142.724 139.51C144.441 138.641 144.448 136.116 142.731 135.247C142.446 135.098 142.283 135.057 141.733 134.976C141.659 134.962 141.435 134.982 141.238 135.009Z" fill="black"/>
<path d="M174.956 135.403C174.46 135.566 173.971 135.98 173.714 136.462C173.591 136.686 173.564 136.849 173.564 137.379C173.564 138.112 173.666 138.376 174.121 138.824C174.569 139.279 174.833 139.381 175.566 139.381C176.299 139.381 176.564 139.279 177.012 138.824C177.467 138.376 177.569 138.112 177.569 137.379C177.569 136.645 177.467 136.381 177.012 135.933C176.605 135.519 176.293 135.39 175.668 135.369C175.37 135.356 175.051 135.369 174.956 135.403Z" fill="black"/>
<path d="M208.857 135.783C208.504 135.912 207.974 136.462 207.879 136.809C207.784 137.148 207.784 137.61 207.879 137.956C207.974 138.309 208.572 138.899 208.938 139.001C209.63 139.198 210.207 139.055 210.696 138.573C211.178 138.085 211.32 137.514 211.123 136.802C211.028 136.449 210.431 135.858 210.065 135.756C209.712 135.654 209.182 135.668 208.857 135.783Z" fill="black"/>
<path d="M242.839 136.13C242.534 136.286 242.16 136.74 242.106 137.019C241.991 137.65 242.201 138.18 242.703 138.546C242.893 138.675 243.016 138.702 243.436 138.702C244.007 138.702 244.23 138.594 244.577 138.146C244.74 137.928 244.76 137.84 244.76 137.379C244.76 136.917 244.74 136.829 244.577 136.612C244.258 136.197 244 136.062 243.504 136.035C243.192 136.021 242.995 136.048 242.839 136.13Z" fill="black"/>
<path d="M276.842 136.496C275.96 137.032 276.34 138.397 277.371 138.397C277.948 138.397 278.389 137.956 278.389 137.379C278.389 136.802 277.948 136.36 277.371 136.36C277.188 136.36 276.978 136.415 276.842 136.496Z" fill="black"/>
<path d="M21.9834 146.684C19.3907 146.99 17.0832 148.626 15.9362 150.981C15.3253 152.23 15.0471 153.75 15.1828 155.04C15.4882 157.85 17.1239 160.171 19.6419 161.345C20.7956 161.888 22.3499 162.16 23.5579 162.017C27.3519 161.59 30.1006 158.841 30.5282 155.047C30.6707 153.838 30.3992 152.284 29.8563 151.13C28.6957 148.646 26.3813 146.99 23.6394 146.678C22.9471 146.603 22.696 146.603 21.9834 146.684ZM24.5556 147.655C27.0057 148.279 28.8993 150.166 29.5644 152.651C29.802 153.547 29.8156 155.033 29.5916 155.936C28.9536 158.488 26.999 160.443 24.447 161.081C23.5512 161.305 22.0648 161.291 21.1621 161.047C18.6577 160.382 16.7506 158.447 16.1262 155.936C15.9022 155.019 15.9158 153.547 16.1601 152.63C16.8795 149.929 19.0989 147.933 21.8816 147.492C22.5467 147.39 23.8226 147.465 24.5556 147.655Z" fill="black"/>
<path d="M55.7081 147.458C51.4662 148.123 48.8261 152.474 50.1767 156.554C51.378 160.151 55.3076 162.146 58.9115 160.993C62.0403 159.988 64.0968 156.845 63.7235 153.642C63.4995 151.7 62.6308 150.099 61.158 148.918C59.6174 147.682 57.6559 147.153 55.7081 147.458ZM58.4161 148.307C60.5947 148.931 62.2032 150.54 62.8344 152.725C63.0584 153.479 63.0923 154.735 62.9159 155.569C62.305 158.515 59.7735 160.592 56.794 160.592C53.3462 160.592 50.55 157.796 50.55 154.348C50.55 151.402 52.6064 148.863 55.5045 148.232C56.285 148.056 57.6831 148.096 58.4161 148.307Z" fill="black"/>
<path d="M89.7245 148.178C87.4373 148.585 85.5437 150.194 84.8379 152.332C84.5528 153.194 84.4578 153.832 84.5053 154.687C84.5868 156.235 85.2247 157.653 86.331 158.759C88.435 160.864 91.7335 161.183 94.2107 159.52C95.8464 158.427 96.8577 156.608 96.9527 154.619C97.0341 152.861 96.3826 151.191 95.1405 149.949C93.9732 148.782 92.5751 148.185 90.9326 148.137C90.4643 148.123 89.9213 148.137 89.7245 148.178ZM91.4213 148.809C92.5208 148.911 93.6949 149.467 94.5908 150.309C96.3283 151.938 96.8101 154.68 95.7378 156.825C94.0478 160.198 89.6227 160.979 86.8672 158.386C85.1501 156.771 84.6546 154.13 85.6727 151.979C86.5143 150.214 88.211 148.985 90.0978 148.789C90.5729 148.741 90.6611 148.741 91.4213 148.809Z" fill="black"/>
<path d="M123.544 148.945C122.431 149.203 121.596 149.671 120.788 150.472C119.757 151.51 119.248 152.637 119.187 154.076C119.105 155.753 119.682 157.185 120.884 158.332C122.024 159.418 123.368 159.907 124.969 159.825C126.374 159.757 127.514 159.248 128.539 158.223C129.211 157.544 129.584 156.954 129.903 156.038C130.121 155.42 130.127 155.359 130.121 154.348C130.121 153.336 130.114 153.268 129.903 152.651C129.591 151.748 129.218 151.157 128.539 150.472C127.854 149.786 127.257 149.413 126.361 149.114C125.797 148.924 125.607 148.897 124.834 148.877C124.236 148.856 123.815 148.884 123.544 148.945ZM125.75 149.528C127.243 149.861 128.621 151.028 129.232 152.481C129.584 153.329 129.686 154.504 129.483 155.434C129.157 156.92 127.989 158.305 126.578 158.888C124.358 159.805 121.908 159.058 120.537 157.049C119.675 155.787 119.492 153.927 120.096 152.488C120.578 151.32 121.562 150.323 122.73 149.8C123.544 149.44 124.813 149.325 125.75 149.528Z" fill="black"/>
<path d="M157.391 149.732C155.735 150.167 154.405 151.51 153.984 153.167C153.332 155.698 154.886 158.318 157.418 158.963C158.049 159.126 158.972 159.14 159.651 158.997C160.974 158.719 162.223 157.748 162.834 156.52C163.207 155.759 163.35 155.155 163.35 154.307C163.35 152.162 161.87 150.268 159.78 149.732C159.088 149.556 158.07 149.556 157.391 149.732ZM159.943 150.296C161.259 150.757 162.277 151.796 162.691 153.092C162.814 153.472 162.841 153.723 162.841 154.382C162.841 155.088 162.814 155.257 162.658 155.692C162.413 156.377 162.101 156.866 161.612 157.361C161.117 157.85 160.628 158.162 159.943 158.407C159.508 158.563 159.339 158.59 158.633 158.59C157.975 158.59 157.723 158.563 157.343 158.441C154.839 157.646 153.624 154.836 154.764 152.481C155.321 151.341 156.434 150.452 157.662 150.173C158.314 150.024 159.332 150.078 159.943 150.296Z" fill="black"/>
<path d="M191.787 150.377C189.643 150.77 188.183 152.875 188.563 155.04C188.943 157.232 191.034 158.705 193.233 158.318C195.554 157.911 197.027 155.61 196.436 153.316C195.914 151.307 193.85 149.997 191.787 150.377ZM193.491 150.859C194.706 151.218 195.663 152.175 196.022 153.39C196.158 153.859 196.165 154.741 196.029 155.264C195.71 156.472 194.726 157.476 193.491 157.836C193.022 157.972 192.14 157.979 191.618 157.843C190.389 157.524 189.357 156.492 189.039 155.264C188.821 154.415 188.943 153.418 189.364 152.623C189.785 151.816 190.701 151.096 191.59 150.859C192.086 150.723 193.029 150.723 193.491 150.859Z" fill="black"/>
<path d="M225.695 151.13C224.059 151.524 222.926 153.214 223.198 154.836C223.32 155.535 223.605 156.112 224.093 156.615C225.424 157.999 227.514 158.006 228.831 156.628C229.496 155.943 229.808 155.135 229.767 154.225C229.727 153.35 229.448 152.712 228.831 152.067C227.996 151.198 226.842 150.852 225.695 151.13ZM227.283 151.51C229.021 152.04 229.89 153.967 229.129 155.59C228.444 157.063 226.693 157.694 225.22 157.008C224.155 156.506 223.53 155.522 223.544 154.341C223.55 153.139 224.161 152.182 225.227 151.68C225.851 151.395 226.679 151.32 227.283 151.51Z" fill="black"/>
<path d="M259.644 151.897C259.148 152.06 258.856 152.243 258.517 152.609C257.832 153.356 257.662 154.334 258.042 155.345C258.144 155.63 258.3 155.854 258.599 156.153C260.153 157.708 262.759 156.744 262.963 154.544C263.132 152.766 261.361 151.354 259.644 151.897ZM261.123 152.182C261.51 152.304 261.646 152.392 262.006 152.745C262.359 153.105 262.447 153.241 262.569 153.628C262.65 153.886 262.711 154.205 262.711 154.347C262.711 154.49 262.65 154.809 262.569 155.067C262.447 155.454 262.359 155.59 262.006 155.949C261.646 156.302 261.51 156.391 261.123 156.513C260.865 156.594 260.546 156.655 260.404 156.655C260.261 156.655 259.942 156.594 259.684 156.513C259.298 156.391 259.162 156.302 258.802 155.949C258.449 155.59 258.361 155.454 258.239 155.067C258.157 154.809 258.096 154.49 258.096 154.347C258.096 154.205 258.157 153.886 258.239 153.628C258.361 153.241 258.449 153.105 258.802 152.745C259.148 152.399 259.304 152.297 259.664 152.182C260.227 152.005 260.553 152.005 261.123 152.182Z" fill="black"/>
<path d="M5.2806 167.04C4.37114 167.183 3.48884 167.637 2.84407 168.289C2.00248 169.144 1.60205 170.128 1.60205 171.316C1.60205 172.504 2.00248 173.488 2.85086 174.343C4.2354 175.749 6.40046 176.02 8.11078 175.009C8.62659 174.696 9.27136 174.058 9.59034 173.522C10.3912 172.178 10.3912 170.461 9.58356 169.097C9.27136 168.581 8.63338 167.936 8.09721 167.617C7.30313 167.142 6.14255 166.904 5.2806 167.04Z" fill="black"/>
<path d="M39.012 167.488C37.261 167.861 35.89 169.538 35.89 171.316C35.89 173.108 37.261 174.778 39.046 175.151C39.9283 175.335 40.7224 175.226 41.5911 174.805C42.8467 174.187 43.7629 172.715 43.7629 171.316C43.7629 170.346 43.3082 169.287 42.582 168.561C41.6182 167.597 40.3083 167.203 39.012 167.488Z" fill="black"/>
<path d="M72.8995 167.889C71.3452 168.31 70.2322 169.742 70.2322 171.316C70.2322 173.23 71.8475 174.846 73.7614 174.846C75.6753 174.846 77.2907 173.23 77.2907 171.316C77.2907 169.382 75.6618 167.773 73.7275 167.794C73.4696 167.794 73.0895 167.841 72.8995 167.889Z" fill="black"/>
<path d="M106.882 168.289C105.531 168.656 104.574 169.898 104.574 171.262C104.581 172.212 104.853 172.884 105.491 173.522C106.115 174.147 106.807 174.439 107.696 174.439C108.586 174.439 109.278 174.147 109.902 173.522C111.3 172.124 111.076 169.803 109.441 168.717C108.715 168.235 107.703 168.065 106.882 168.289Z" fill="black"/>
<path d="M141.211 168.608C140.077 168.764 139.086 169.762 138.93 170.909C138.672 172.749 140.199 174.276 142.039 174.018C143.192 173.862 144.177 172.878 144.333 171.724C144.482 170.658 144.034 169.626 143.172 169.056C142.575 168.662 141.93 168.513 141.211 168.608Z" fill="black"/>
<path d="M174.956 169.049C174.453 169.184 173.931 169.551 173.639 169.979C173.408 170.325 173.191 170.963 173.191 171.316C173.191 171.669 173.408 172.307 173.639 172.653C174.134 173.373 175.091 173.794 175.919 173.638C176.462 173.536 176.863 173.332 177.222 172.972C177.813 172.389 178.044 171.581 177.847 170.793C177.636 169.924 176.992 169.259 176.143 169.042C175.655 168.92 175.444 168.92 174.956 169.049Z" fill="black"/>
<path d="M208.823 169.483C208.327 169.653 207.784 170.217 207.635 170.719C207.411 171.486 207.567 172.097 208.13 172.674C208.436 172.986 208.599 173.095 208.884 173.176C209.685 173.414 210.302 173.251 210.872 172.674C211.157 172.382 211.286 172.192 211.361 171.92C211.592 171.147 211.442 170.536 210.872 169.959C210.567 169.646 210.404 169.538 210.119 169.456C209.637 169.314 209.284 169.32 208.823 169.483Z" fill="black"/>
<path d="M242.792 169.884C241.794 170.339 241.563 171.696 242.357 172.45C243.355 173.393 244.997 172.687 244.997 171.316C244.997 170.916 244.869 170.576 244.604 170.284C244.278 169.925 243.912 169.755 243.436 169.755C243.219 169.755 242.948 169.809 242.792 169.884Z" fill="black"/>
<path d="M277.27 170.128C277.236 170.142 277.12 170.169 277.018 170.189C276.788 170.244 276.448 170.529 276.306 170.794C276.184 171.038 276.17 171.574 276.285 171.798C276.516 172.239 276.903 172.484 277.371 172.484C278.043 172.484 278.539 171.988 278.539 171.316C278.539 170.719 278.145 170.25 277.541 170.149C277.432 170.128 277.31 170.122 277.27 170.128Z" fill="black"/>
<path d="M21.841 179.604C18.0606 180.045 14.9454 182.984 14.2599 186.758C14.1106 187.572 14.1174 189.072 14.2667 189.86C14.9522 193.444 17.7009 196.193 21.2844 196.878C22.0717 197.027 23.5717 197.034 24.3861 196.885C27.7321 196.281 30.4605 193.756 31.3088 190.491C32.6051 185.502 29.3202 180.479 24.2164 179.658C23.5988 179.563 22.445 179.536 21.841 179.604ZM24.8476 180.703C27.542 181.416 29.7071 183.581 30.4469 186.296C30.6098 186.907 30.6233 187.063 30.6233 188.285C30.6233 189.514 30.6098 189.656 30.4401 190.287C30.1007 191.543 29.1913 193.104 28.3158 193.925C27.3859 194.801 26.0285 195.561 24.8748 195.853C22.126 196.552 19.2891 195.785 17.3208 193.824C14.9657 191.462 14.3617 187.844 15.8277 184.857C16.1942 184.104 16.9 183.12 17.4023 182.645C18.4746 181.633 19.8252 180.927 21.2641 180.615C22.1803 180.418 23.9178 180.459 24.8476 180.703Z" fill="black"/>
<path d="M56.1153 180.418C52.7828 180.69 49.9391 183.106 49.1382 186.351C48.9482 187.118 48.9075 187.464 48.9075 188.353C48.9143 190.478 49.7694 192.48 51.3101 193.96C52.8236 195.419 54.69 196.172 56.794 196.172C61.1851 196.172 64.6804 192.677 64.6804 188.285C64.6804 186.181 63.9271 184.314 62.4679 182.801C61.1987 181.477 59.4002 180.595 57.7102 180.446C56.889 180.371 56.7057 180.371 56.1153 180.418ZM58.5789 181.423C61.1444 182.081 63.1737 184.206 63.7303 186.826C63.8999 187.647 63.8999 188.916 63.7303 189.744C63.1466 192.48 60.9883 194.638 58.2532 195.222C57.4252 195.392 56.156 195.392 55.3348 195.222C53.0408 194.733 51.1132 193.118 50.2309 190.953C49.5658 189.317 49.5522 187.301 50.2038 185.672C50.9232 183.887 52.4978 182.319 54.242 181.667C55.5859 181.165 57.2012 181.077 58.5789 181.423Z" fill="black"/>
<path d="M89.3036 181.362C86.0051 182.054 83.6704 184.926 83.6704 188.299C83.6704 192.209 86.8264 195.351 90.7492 195.344C94.6518 195.338 97.7874 192.195 97.7874 188.285C97.7874 184.905 95.4458 182.048 92.1202 181.355C91.3329 181.192 90.0977 181.192 89.3036 181.362ZM92.3917 182.17C94.516 182.747 96.2671 184.498 96.844 186.622C97.0408 187.342 97.1019 188.462 96.9865 189.242C96.6404 191.666 94.8147 193.715 92.3917 194.408C91.9234 194.543 91.6926 194.564 90.7289 194.564C89.8737 194.564 89.5072 194.537 89.1815 194.448C86.9078 193.817 85.1975 192.12 84.5799 189.874C84.4306 189.324 84.3763 187.871 84.4848 187.213C84.9056 184.579 87.1182 182.407 89.7719 182.027C90.5524 181.912 91.6723 181.973 92.3917 182.17Z" fill="black"/>
<path d="M123.7 182.044C121.169 182.505 119.329 184.189 118.61 186.7C118.413 187.392 118.393 188.872 118.576 189.591C119.071 191.573 120.388 193.175 122.132 193.922C123.116 194.336 123.585 194.431 124.698 194.424C125.594 194.417 125.784 194.397 126.3 194.241C127.494 193.881 128.268 193.426 129.069 192.625C129.87 191.824 130.324 191.051 130.684 189.856C130.84 189.34 130.86 189.15 130.867 188.254C130.874 187.392 130.847 187.155 130.718 186.7C130.039 184.351 128.458 182.77 126.171 182.173C125.587 182.016 124.223 181.949 123.7 182.044ZM126.259 182.865C128.281 183.476 129.795 185.159 130.161 187.216C130.548 189.347 129.612 191.607 127.833 192.822C126.164 193.969 123.951 194.119 122.153 193.209C120.069 192.157 118.895 190.005 119.112 187.643C119.356 185.044 121.494 182.906 124.087 182.668C124.793 182.607 125.662 182.682 126.259 182.865Z" fill="black"/>
<path d="M157.635 182.957C156.509 183.174 155.599 183.663 154.751 184.525C154.208 185.075 154.079 185.258 153.787 185.855C153.339 186.772 153.21 187.308 153.21 188.285C153.21 189.276 153.339 189.806 153.794 190.729C154.099 191.353 154.221 191.523 154.791 192.093C155.362 192.663 155.531 192.785 156.156 193.091C157.079 193.546 157.608 193.675 158.599 193.675C159.583 193.675 160.112 193.546 161.042 193.091C161.673 192.785 161.823 192.677 162.4 192.093C162.97 191.523 163.099 191.353 163.404 190.729C163.859 189.806 163.988 189.276 163.988 188.285C163.988 187.294 163.859 186.765 163.404 185.842C163.099 185.217 162.977 185.048 162.406 184.478C161.836 183.907 161.667 183.785 161.042 183.48C160.649 183.29 160.133 183.086 159.888 183.025C159.23 182.869 158.253 182.842 157.635 182.957ZM160.153 183.704C161.545 184.179 162.712 185.34 163.18 186.731C163.404 187.417 163.486 188.503 163.35 189.188C162.868 191.659 160.621 193.328 158.09 193.098C156.305 192.935 154.676 191.645 154.052 189.921C153.169 187.498 154.411 184.735 156.794 183.799C157.547 183.507 157.771 183.473 158.735 183.493C159.454 183.507 159.671 183.541 160.153 183.704Z" fill="black"/>
<path d="M191.991 183.744C189.697 184.009 187.973 185.95 187.973 188.278C187.966 192.113 192.364 194.231 195.405 191.848C197.04 190.559 197.57 188.19 196.64 186.283C195.792 184.531 193.932 183.52 191.991 183.744ZM193.382 184.287C193.606 184.328 194.047 184.484 194.36 184.633C196.043 185.441 196.945 187.382 196.511 189.262C196.179 190.688 194.936 191.93 193.511 192.262C192.1 192.588 190.654 192.181 189.649 191.17C188.855 190.382 188.441 189.378 188.455 188.265C188.462 187.572 188.57 187.111 188.882 186.459C189.507 185.149 190.83 184.294 192.364 184.192C192.67 184.178 192.799 184.185 193.382 184.287Z" fill="black"/>
<path d="M225.525 184.654C224.168 185.034 223.177 186.045 222.831 187.403C222.682 187.98 222.729 188.971 222.933 189.541C223.299 190.559 224.175 191.441 225.213 191.821C225.777 192.032 227.066 192.045 227.616 191.855C228.729 191.468 229.632 190.593 230.005 189.541C230.175 189.052 230.249 188.048 230.147 187.566C229.869 186.29 228.98 185.231 227.792 184.783C227.195 184.552 226.102 184.491 225.525 184.654ZM227.914 185.285C228.641 185.645 229.156 186.167 229.509 186.907C229.76 187.43 229.76 187.443 229.76 188.292V189.14L229.475 189.724C228.763 191.163 227.243 191.889 225.695 191.543C224.555 191.285 223.469 190.199 223.211 189.059C223.116 188.638 223.116 187.932 223.211 187.511C223.455 186.419 224.399 185.428 225.546 185.047C225.729 184.993 226.082 184.966 226.584 184.98C227.317 185 227.365 185.013 227.914 185.285Z" fill="black"/>
<path d="M259.657 185.462C258.395 185.815 257.485 186.996 257.485 188.285C257.485 189.867 258.823 191.204 260.404 191.204C261.985 191.204 263.322 189.867 263.322 188.285C263.322 186.405 261.449 184.966 259.657 185.462ZM261.524 185.944C262.04 186.195 262.494 186.649 262.752 187.165C262.929 187.539 262.949 187.634 262.949 188.285C262.949 188.937 262.929 189.032 262.752 189.405C262.494 189.921 262.04 190.376 261.524 190.634C261.15 190.81 261.055 190.831 260.404 190.831C259.752 190.831 259.657 190.81 259.284 190.634C258.768 190.376 258.313 189.921 258.062 189.412C257.811 188.903 257.75 188.095 257.913 187.532C258.137 186.778 258.85 186.045 259.589 185.808C259.786 185.74 260.112 185.713 260.512 185.726C261.028 185.74 261.184 185.774 261.524 185.944Z" fill="black"/>
<path d="M5.33494 200.435C2.70837 200.747 0.787648 203.157 1.07949 205.77C1.46635 209.211 5.21956 211.166 8.23298 209.49C10.8867 208.023 11.5518 204.48 9.61074 202.152C8.56555 200.903 6.93667 200.252 5.33494 200.435Z" fill="black"/>
<path d="M39.0188 200.917C37.0031 201.277 35.4149 203.191 35.4149 205.254C35.4149 207.175 36.752 208.94 38.6387 209.503C39.2021 209.673 40.4509 209.673 41.0142 209.503C42.1816 209.157 43.2403 208.275 43.7561 207.222C44.0751 206.571 44.238 205.906 44.238 205.254C44.238 203.347 42.8942 201.562 41.0481 201.019C40.5934 200.883 39.5143 200.829 39.0188 200.917Z" fill="black"/>
<path d="M73.2456 201.317C71.2367 201.623 69.8114 203.252 69.8114 205.254C69.8114 205.763 69.8453 206.014 69.9879 206.449C70.8837 209.232 74.3383 210.134 76.4694 208.139C78.3698 206.367 78.0508 203.252 75.8315 201.867C75.1596 201.439 74.0126 201.202 73.2456 201.317Z" fill="black"/>
<path d="M106.835 201.826C106.237 201.989 105.654 202.329 105.212 202.77C103.821 204.161 103.821 206.347 105.212 207.738C106.604 209.13 108.789 209.13 110.181 207.738C111.565 206.354 111.565 204.154 110.181 202.77C109.305 201.894 107.982 201.521 106.835 201.826Z" fill="black"/>
<path d="M141.156 202.2C139.772 202.451 138.801 203.449 138.57 204.86C138.36 206.17 139.222 207.636 140.478 208.112C141.536 208.512 142.636 208.369 143.498 207.711C144.943 206.612 145.127 204.507 143.891 203.143C143.26 202.444 142.066 202.03 141.156 202.2Z" fill="black"/>
<path d="M174.854 202.694C174.06 202.959 173.51 203.441 173.171 204.154C172.974 204.568 172.953 204.67 172.953 205.254C172.953 205.837 172.974 205.939 173.171 206.353C173.442 206.93 173.89 207.378 174.467 207.65C174.881 207.847 174.983 207.867 175.566 207.867C176.15 207.867 176.252 207.847 176.666 207.65C177.243 207.378 177.691 206.93 177.962 206.353C178.159 205.939 178.179 205.837 178.179 205.254C178.179 204.67 178.159 204.568 177.962 204.154C177.528 203.224 176.679 202.667 175.668 202.627C175.342 202.613 175.017 202.64 174.854 202.694Z" fill="black"/>
<path d="M208.972 203.115C208.47 203.258 208.28 203.367 207.92 203.733C207.085 204.575 207.099 205.953 207.947 206.808C209.332 208.193 211.694 207.216 211.694 205.254C211.694 203.828 210.316 202.742 208.972 203.115Z" fill="black"/>
<path d="M242.758 203.631C241.332 204.276 241.319 206.19 242.724 206.856C243.85 207.392 245.194 206.516 245.201 205.254C245.201 204.303 244.387 203.489 243.436 203.489C243.206 203.489 242.948 203.543 242.758 203.631Z" fill="black"/>
<path d="M276.971 203.998C276.557 204.127 276.238 204.46 276.109 204.894C276.014 205.22 276.014 205.288 276.109 205.62C276.184 205.878 276.292 206.055 276.475 206.218C277.215 206.883 278.355 206.564 278.634 205.614C278.729 205.288 278.729 205.22 278.634 204.894C278.505 204.453 278.186 204.127 277.745 203.991C277.358 203.876 277.358 203.876 276.971 203.998Z" fill="black"/>
<path d="M21.7188 212.523C18.2167 212.931 15.0947 215.327 13.8187 218.564C13.2826 219.942 13.0789 221.062 13.1197 222.494C13.2486 227.137 16.4928 230.917 21.1283 231.834C21.9631 232.003 23.7413 231.997 24.5897 231.834C28.6619 231.04 31.6753 228.026 32.4694 223.953C32.6323 223.105 32.6391 221.327 32.4694 220.492C31.6685 216.413 28.5804 213.331 24.5761 212.618C23.8703 212.489 22.4178 212.442 21.7188 212.523ZM24.6236 213.636C28.8723 214.56 31.7907 218.313 31.5939 222.596C31.4921 224.849 30.6301 226.811 29.042 228.406C27.257 230.184 25.0173 231.053 22.4857 230.951C18.4407 230.789 15.1286 227.958 14.2599 223.92C14.1649 223.472 14.1377 223.064 14.1445 222.121C14.1513 220.987 14.1649 220.845 14.3549 220.119C14.7825 218.51 15.5426 217.18 16.6761 216.039C17.9995 214.722 19.5945 213.901 21.5016 213.562C22.1667 213.446 23.9313 213.487 24.6236 213.636Z" fill="black"/>
<path d="M55.7419 213.44C54.2352 213.67 52.9864 214.139 51.8733 214.892C49.9391 216.209 48.636 218.15 48.1337 220.458C48.0387 220.899 48.0048 221.32 48.0048 222.223C48.0048 223.125 48.0387 223.546 48.1337 223.988C48.8939 227.49 51.5272 230.123 55.0293 230.884C55.8437 231.06 57.7441 231.06 58.5585 230.884C62.0606 230.123 64.694 227.49 65.4541 223.988C65.6306 223.173 65.6306 221.272 65.4541 220.458C64.7008 217.003 62.1285 214.39 58.6943 213.596C58.131 213.46 56.2442 213.365 55.7419 213.44ZM58.2938 214.437C61.5923 215.096 64.1103 217.723 64.6261 221.049C64.8162 222.257 64.66 223.831 64.2393 224.938C62.7868 228.793 58.7554 230.904 54.7918 229.893C53.3054 229.513 51.7444 228.535 50.7739 227.374C48.2423 224.354 48.2423 220.091 50.7739 217.071C51.9616 215.652 53.8348 214.628 55.7419 214.356C56.3256 214.275 57.6898 214.322 58.2938 214.437Z" fill="black"/>
<path d="M90.0502 214.356C86.236 214.675 83.1886 217.723 82.8628 221.537C82.666 223.933 83.5279 226.241 85.245 227.897C86.7585 229.356 88.625 230.11 90.7289 230.11C95.1201 230.103 98.6086 226.614 98.6154 222.223C98.6154 219.325 97.0816 216.732 94.5297 215.286C93.308 214.594 91.5502 214.227 90.0502 214.356ZM92.2357 215.299C94.9369 215.883 97.0884 218.048 97.6585 220.757C97.8349 221.592 97.8417 222.854 97.6653 223.682C97.1766 225.976 95.5273 227.938 93.3419 228.813C91.7131 229.465 89.6973 229.451 88.0617 228.786C86.297 228.067 84.8514 226.614 84.1456 224.843C83.3515 222.874 83.5347 220.444 84.6003 218.659C86.2156 215.978 89.2222 214.648 92.2357 215.299Z" fill="black"/>
<path d="M123.578 215.334C119.336 215.999 116.696 220.35 118.047 224.429C119.248 228.026 123.178 230.022 126.781 228.868C129.91 227.863 131.967 224.721 131.593 221.517C131.369 219.576 130.501 217.974 129.028 216.793C127.487 215.558 125.526 215.028 123.578 215.334ZM126.286 216.182C128.465 216.806 130.073 218.415 130.704 220.601C130.928 221.354 130.962 222.61 130.786 223.445C130.175 226.39 127.643 228.467 124.664 228.467C121.216 228.467 118.42 225.671 118.42 222.223C118.42 219.277 120.476 216.739 123.374 216.107C124.155 215.931 125.553 215.972 126.286 216.182Z" fill="black"/>
<path d="M157.452 216.284C155.117 216.813 153.475 218.32 152.782 220.574C152.619 221.11 152.599 221.279 152.599 222.189C152.599 223.037 152.626 223.302 152.748 223.75C153.332 225.854 154.846 227.395 156.95 228.04C157.486 228.203 157.655 228.216 158.599 228.223C159.556 228.223 159.705 228.203 160.248 228.04C162.311 227.402 163.777 225.936 164.415 223.872C164.578 223.329 164.599 223.18 164.599 222.223C164.592 221.279 164.578 221.11 164.415 220.574C163.771 218.469 162.21 216.935 160.126 216.379C159.42 216.189 158.076 216.141 157.452 216.284ZM160.024 216.997C160.302 217.078 160.805 217.282 161.144 217.458C161.639 217.709 161.877 217.892 162.4 218.422C162.929 218.945 163.112 219.182 163.363 219.678C163.791 220.512 163.961 221.144 163.994 222.019C164.049 223.54 163.567 224.829 162.515 225.929C161.402 227.11 160.038 227.673 158.429 227.619C157.52 227.585 156.902 227.422 156.054 226.988C155.558 226.737 155.321 226.553 154.798 226.024C154.269 225.501 154.085 225.264 153.828 224.761C153.352 223.832 153.21 223.248 153.21 222.223C153.21 221.198 153.352 220.614 153.828 219.684C154.085 219.182 154.269 218.945 154.798 218.422C155.321 217.892 155.558 217.709 156.054 217.458C156.685 217.132 157.221 216.949 157.818 216.854C158.348 216.773 159.454 216.84 160.024 216.997Z" fill="black"/>
<path d="M191.278 217.261C189.554 217.729 188.258 218.938 187.668 220.628C187.491 221.13 187.478 221.245 187.478 222.223C187.478 223.2 187.491 223.316 187.668 223.818C187.939 224.598 188.346 225.236 188.93 225.827C189.52 226.411 190.158 226.818 190.939 227.089C191.441 227.266 191.557 227.28 192.534 227.28C193.511 227.28 193.627 227.266 194.129 227.089C194.909 226.818 195.547 226.411 196.138 225.827C196.721 225.236 197.129 224.598 197.4 223.818C197.577 223.316 197.59 223.2 197.59 222.223C197.59 221.245 197.577 221.13 197.4 220.628C197.129 219.847 196.721 219.209 196.138 218.619C195.547 218.028 194.903 217.628 194.129 217.363C193.389 217.112 192.011 217.064 191.278 217.261ZM193.491 217.743C194.285 217.899 195.276 218.449 195.839 219.039C196.389 219.63 196.837 220.458 197.02 221.259C197.129 221.734 197.108 222.813 196.986 223.316C196.579 224.924 195.255 226.255 193.654 226.669C193.124 226.804 191.95 226.804 191.414 226.669C189.805 226.255 188.502 224.951 188.088 223.343C187.953 222.8 187.953 221.632 188.088 221.103C188.72 218.707 191.061 217.254 193.491 217.743Z" fill="black"/>
<path d="M225.627 218.123C223.964 218.436 222.634 219.834 222.342 221.578C222.241 222.175 222.241 222.27 222.342 222.881C222.641 224.646 223.958 226.004 225.675 226.329C226.347 226.458 226.618 226.458 227.27 226.329C228.987 225.99 230.297 224.633 230.595 222.881C230.697 222.27 230.697 222.175 230.595 221.565C230.297 219.8 228.98 218.442 227.256 218.117C226.645 218.001 226.292 218.001 225.627 218.123ZM227.378 218.592C229.034 219.026 230.202 220.526 230.202 222.223C230.202 224.28 228.525 225.956 226.469 225.956C224.874 225.956 223.449 224.938 222.912 223.411C222.756 222.963 222.695 221.958 222.804 221.456C223.001 220.499 223.713 219.508 224.562 219.006C225.41 218.51 226.469 218.354 227.378 218.592Z" fill="black"/>
<path d="M259.413 219.128C258.836 219.318 258.436 219.583 257.981 220.078C257.194 220.933 256.949 222.114 257.316 223.221C257.513 223.791 257.642 224.015 258.056 224.449C258.463 224.884 258.829 225.114 259.406 225.311C260.214 225.576 261.083 225.515 261.883 225.128C262.263 224.945 262.915 224.347 263.173 223.933C263.648 223.187 263.784 222.162 263.519 221.3C263.343 220.73 263.186 220.458 262.759 220.003C261.877 219.067 260.614 218.734 259.413 219.128ZM261.116 219.406C262.257 219.705 263.071 220.601 263.275 221.789C263.58 223.587 262.006 225.277 260.166 225.121C258.456 224.979 257.207 223.323 257.546 221.666C257.893 220.024 259.515 218.992 261.116 219.406Z" fill="black"/>
<path d="M4.63592 233.958C2.78307 234.434 1.41888 235.689 0.787692 237.495C0.570508 238.119 0.563721 238.173 0.563721 239.192C0.563721 240.21 0.570508 240.264 0.787692 240.888C1.42567 242.721 2.85773 244.018 4.73772 244.452C5.30783 244.581 6.47519 244.581 7.0453 244.452C8.9253 244.018 10.3574 242.721 10.9953 240.888C11.2125 240.264 11.2193 240.21 11.2193 239.192C11.2193 238.173 11.2125 238.119 10.9953 237.495C10.3574 235.662 8.9253 234.366 7.0453 233.931C6.44126 233.796 5.23996 233.809 4.63592 233.958Z" fill="black"/>
<path d="M38.7676 234.407C37.2202 234.739 35.856 235.92 35.2588 237.427C34.424 239.558 35.2316 242.049 37.1727 243.298C39.4599 244.764 42.4733 244.113 43.9325 241.846C45.6089 239.232 44.4891 235.764 41.591 234.624C40.763 234.298 39.6499 234.216 38.7676 234.407Z" fill="black"/>
<path d="M72.8112 234.888C71.3113 235.207 69.9743 236.477 69.5128 238.004C69.3431 238.567 69.3431 239.816 69.5128 240.38C69.8589 241.547 70.7412 242.606 71.7932 243.122C73.1031 243.76 74.4198 243.76 75.7296 243.122C76.7816 242.606 77.6639 241.547 78.0101 240.38C78.1797 239.816 78.1797 238.567 78.0101 238.004C77.6639 236.836 76.7816 235.778 75.7296 235.262C74.7863 234.8 73.8021 234.671 72.8112 234.888Z" fill="black"/>
<path d="M106.882 235.363C105.131 235.737 103.76 237.413 103.76 239.192C103.76 240.984 105.131 242.653 106.916 243.027C107.798 243.21 108.592 243.101 109.461 242.68C110.717 242.063 111.633 240.59 111.633 239.192C111.633 238.221 111.178 237.162 110.452 236.436C109.488 235.472 108.178 235.078 106.882 235.363Z" fill="black"/>
<path d="M140.953 235.838C139.331 236.185 138.218 237.556 138.218 239.192C138.218 240.882 139.358 242.226 141.075 242.565C141.584 242.667 141.679 242.667 142.188 242.565C143.905 242.226 145.045 240.882 145.045 239.192C145.045 237.542 143.925 236.178 142.276 235.832C141.706 235.71 141.523 235.71 140.953 235.838Z" fill="black"/>
<path d="M174.718 236.361C173.91 236.633 173.252 237.203 172.899 237.949C172.695 238.384 172.682 238.452 172.682 239.191C172.682 239.931 172.695 239.999 172.899 240.434C173.184 241.038 173.72 241.574 174.324 241.859C174.759 242.063 174.827 242.076 175.566 242.076C176.306 242.076 176.374 242.063 176.808 241.859C177.412 241.574 177.949 241.038 178.234 240.434C178.437 239.999 178.451 239.931 178.451 239.191C178.451 238.452 178.437 238.384 178.234 237.949C177.949 237.345 177.412 236.809 176.808 236.524C176.401 236.334 176.265 236.307 175.668 236.293C175.241 236.28 174.888 236.307 174.718 236.361Z" fill="black"/>
<path d="M208.707 236.87C208.029 237.114 207.547 237.555 207.241 238.221C207.119 238.485 207.092 238.669 207.092 239.191C207.092 239.748 207.119 239.891 207.275 240.223C207.506 240.719 207.974 241.187 208.47 241.418C208.802 241.574 208.945 241.601 209.501 241.601C210.058 241.601 210.2 241.574 210.533 241.418C211.028 241.187 211.497 240.719 211.728 240.223C211.884 239.891 211.911 239.748 211.911 239.191C211.911 238.635 211.884 238.492 211.728 238.16C211.497 237.664 211.022 237.189 210.533 236.965C210.017 236.727 209.216 236.687 208.707 236.87Z" fill="black"/>
<path d="M242.758 237.359C242.249 237.528 241.726 238.071 241.577 238.581C241.441 239.042 241.441 239.341 241.577 239.809C241.794 240.542 242.642 241.16 243.436 241.16C244.475 241.16 245.405 240.23 245.405 239.192C245.405 238.676 245.208 238.228 244.801 237.827C244.224 237.243 243.545 237.087 242.758 237.359Z" fill="black"/>
<path d="M276.862 237.807C276.333 238.004 275.878 238.642 275.878 239.198C275.878 239.511 276.075 239.965 276.333 240.223C276.584 240.481 277.046 240.685 277.371 240.685C277.697 240.685 278.159 240.481 278.41 240.223C278.668 239.965 278.864 239.511 278.864 239.198C278.864 238.628 278.41 237.997 277.853 237.8C277.493 237.678 277.222 237.678 276.862 237.807Z" fill="black"/>
<path d="M21.5152 245.45C20.3682 245.592 18.7461 246.108 17.7688 246.644C16.3842 247.405 14.8164 248.803 13.9816 250.031C12.0474 252.882 11.5655 256.351 12.6514 259.615C13.1876 261.224 13.9816 262.493 15.2508 263.769C16.8458 265.358 18.5425 266.267 20.8229 266.756C21.8546 266.98 23.8635 266.98 24.8951 266.756C27.1688 266.274 28.8723 265.358 30.4605 263.763C32.0554 262.174 32.9717 260.471 33.4535 258.197C33.6775 257.165 33.6775 255.156 33.4535 254.124C32.8902 251.484 31.5803 249.332 29.5442 247.697C27.3588 245.945 24.325 245.097 21.5152 245.45ZM24.5083 246.617C26.4222 246.93 28.214 247.873 29.68 249.339C30.5419 250.194 31.1392 251.036 31.6143 252.047C32.2522 253.391 32.5237 254.654 32.5169 256.228C32.5169 257.79 32.1979 259.134 31.4989 260.511C29.3474 264.74 24.5422 266.79 20.0085 265.419C17.0494 264.516 14.5042 261.971 13.6016 259.011C12.217 254.437 14.3278 249.57 18.6036 247.479C20.4836 246.563 22.4111 246.278 24.5083 246.617Z" fill="black"/>
<path d="M55.8777 246.434C54.8529 246.529 53.5294 246.902 52.5521 247.377C49.749 248.721 47.8012 251.287 47.1836 254.43C47.0207 255.278 47.0139 257.056 47.1836 257.891C47.9912 261.984 51.0521 265.032 55.1108 265.778C56.0474 265.948 57.7645 265.934 58.6739 265.738C62.6376 264.903 65.5356 262.004 66.3704 258.041C66.5672 257.131 66.5808 255.414 66.4111 254.477C65.6713 250.432 62.6104 247.343 58.5586 246.556C58.0088 246.447 56.4546 246.38 55.8777 246.434ZM58.8029 247.635C62.1828 248.47 64.6601 251.036 65.3931 254.464C65.4881 254.912 65.5152 255.319 65.5084 256.262C65.5017 257.396 65.4881 257.538 65.2981 258.265C64.2053 262.371 60.5472 265.1 56.3935 264.896C51.5476 264.665 47.8419 260.613 48.0591 255.787C48.1337 254.09 48.5953 252.685 49.5319 251.28C50.896 249.244 52.9797 247.92 55.4705 247.5C56.3189 247.357 57.941 247.425 58.8029 247.635Z" fill="black"/>
<path d="M89.7108 247.479C85.9305 247.92 82.8153 250.859 82.1298 254.633C81.9805 255.448 81.9872 256.948 82.1366 257.735C82.822 261.319 85.5708 264.068 89.1543 264.753C89.9416 264.903 91.4415 264.909 92.256 264.76C97.0136 263.898 100.156 259.378 99.3212 254.599C98.6833 250.988 95.7513 248.124 92.0863 247.533C91.4687 247.438 90.3149 247.411 89.7108 247.479ZM92.7175 248.579C95.4119 249.291 97.577 251.457 98.3168 254.172C98.4796 254.782 98.4932 254.939 98.4932 256.16C98.4932 257.389 98.4796 257.531 98.31 258.163C97.9706 259.418 97.0612 260.979 96.1856 261.801C95.2558 262.676 93.8984 263.437 92.7446 263.728C89.9959 264.428 87.1589 263.661 85.1907 261.699C82.8356 259.337 82.2316 255.719 83.6976 252.733C84.0641 251.979 84.7699 250.995 85.2721 250.52C86.3445 249.509 87.6951 248.803 89.1339 248.49C90.0502 248.294 91.7877 248.334 92.7175 248.579Z" fill="black"/>
<path d="M123.68 248.524C120.558 248.952 118.013 251.178 117.232 254.151C116.866 255.536 116.866 256.724 117.225 258.142C117.762 260.253 119.302 262.12 121.304 263.084C123.456 264.122 125.892 264.122 128.03 263.084C130.46 261.903 132.041 259.615 132.34 256.86C132.584 254.599 131.648 252.149 129.931 250.547C128.682 249.38 127.175 248.694 125.417 248.491C124.705 248.409 124.46 248.416 123.68 248.524ZM126.361 249.461C128.845 250.106 130.772 252.061 131.397 254.572C131.621 255.482 131.607 256.961 131.363 257.878C130.718 260.314 128.818 262.208 126.381 262.86C125.465 263.104 123.992 263.118 123.076 262.894C120.565 262.269 118.637 260.369 117.958 257.857C117.721 256.961 117.707 255.475 117.931 254.572C118.623 251.796 120.856 249.753 123.687 249.305C124.358 249.203 125.634 249.278 126.361 249.461Z" fill="black"/>
<path d="M157.941 249.516C155.09 249.767 152.647 251.973 152.049 254.844C151.907 255.543 151.907 256.778 152.049 257.477C152.647 260.369 155.063 262.534 157.974 262.806C159.237 262.921 160.404 262.704 161.551 262.134C163.635 261.102 165.033 259.079 165.243 256.785C165.528 253.697 163.642 250.805 160.703 249.821C159.834 249.536 158.925 249.434 157.941 249.516ZM160.126 250.357C161.829 250.826 163.268 252.047 164.022 253.663C164.449 254.572 164.531 254.966 164.537 256.127C164.537 257.206 164.483 257.559 164.178 258.333C163.913 259.011 163.499 259.656 162.983 260.213C162.413 260.824 161.85 261.238 161.096 261.584C160.173 262.018 159.8 262.093 158.599 262.093C157.404 262.093 157.024 262.018 156.108 261.591C154.771 260.966 153.794 259.996 153.176 258.658C152.742 257.735 152.667 257.362 152.667 256.161C152.667 254.959 152.742 254.586 153.176 253.663C153.631 252.685 154.377 251.789 155.226 251.212C155.877 250.765 156.909 250.357 157.683 250.228C158.103 250.16 159.719 250.249 160.126 250.357Z" fill="black"/>
<path d="M191.455 250.595C190.932 250.703 190.484 250.873 189.853 251.192C189.344 251.45 189.127 251.619 188.564 252.183C188.007 252.746 187.824 252.977 187.566 253.479C187.036 254.518 186.935 254.939 186.935 256.16C186.935 257.382 187.03 257.803 187.566 258.841C187.824 259.35 187.993 259.568 188.557 260.131C189.12 260.688 189.351 260.871 189.853 261.129C190.892 261.658 191.312 261.76 192.534 261.76C193.762 261.76 194.183 261.658 195.215 261.129C195.717 260.871 195.948 260.688 196.504 260.131C197.061 259.574 197.244 259.344 197.502 258.841C198.031 257.81 198.133 257.389 198.133 256.16C198.133 254.939 198.031 254.518 197.502 253.479C197.244 252.977 197.061 252.746 196.504 252.183C195.941 251.619 195.724 251.45 195.215 251.192C194.231 250.69 193.803 250.581 192.704 250.554C192.181 250.54 191.618 250.561 191.455 250.595ZM193.735 251.246C195.188 251.572 196.511 252.672 197.149 254.083C197.455 254.749 197.577 255.346 197.577 256.16C197.577 256.975 197.455 257.572 197.149 258.237C196.504 259.656 195.215 260.728 193.701 261.095C193.104 261.237 191.964 261.237 191.367 261.095C189.853 260.728 188.564 259.656 187.919 258.237C187.613 257.572 187.491 256.975 187.491 256.16C187.491 255.027 187.783 254.111 188.421 253.221C189.622 251.531 191.658 250.771 193.735 251.246Z" fill="black"/>
<path d="M225.485 251.647C223.869 252 222.641 253.113 222.071 254.728C221.908 255.19 221.888 255.339 221.888 256.16C221.888 256.988 221.908 257.131 222.078 257.62C222.573 259.025 223.578 260.036 224.969 260.531C225.512 260.728 225.614 260.742 226.469 260.742C227.283 260.742 227.439 260.722 227.901 260.559C228.939 260.192 229.747 259.581 230.31 258.726C231.22 257.362 231.328 255.59 230.602 254.104C229.693 252.237 227.528 251.199 225.485 251.647ZM227.365 252.122C229.204 252.509 230.609 254.26 230.609 256.16C230.609 258.427 228.736 260.301 226.469 260.301C224.195 260.301 222.329 258.434 222.329 256.16C222.329 254.918 222.96 253.622 223.917 252.902C224.928 252.135 226.143 251.857 227.365 252.122Z" fill="black"/>
<path d="M259.521 252.665C257.92 253.106 256.807 254.538 256.807 256.161C256.807 258.217 258.558 259.867 260.607 259.738C263.241 259.575 264.775 256.86 263.58 254.477C263.343 254.002 262.725 253.344 262.27 253.072C261.503 252.624 260.309 252.448 259.521 252.665ZM261.028 253.004C261.517 253.065 262.263 253.473 262.684 253.9C264.232 255.475 263.777 258.075 261.775 259.059C261.259 259.317 261.252 259.317 260.404 259.317C259.555 259.317 259.549 259.317 259.033 259.059C257.689 258.4 256.997 257.05 257.248 255.59C257.479 254.253 258.619 253.154 259.929 252.984C260.377 252.93 260.458 252.93 261.028 253.004Z" fill="black"/>
<path d="M4.63589 267.333C4.09971 267.448 3.28527 267.781 2.71517 268.12C2.2265 268.412 1.17452 269.464 0.882678 269.953C0.203979 271.107 -0.0471401 272.098 0.00715587 273.394C0.0546648 274.419 0.15647 274.847 0.597624 275.743C1.18131 276.944 2.07719 277.84 3.27849 278.424C4.29654 278.919 4.64946 279.001 5.89148 279.001C7.1335 279.001 7.48642 278.919 8.50447 278.424C9.71256 277.84 10.6017 276.944 11.1853 275.743C11.6672 274.731 11.7622 274.31 11.7622 273.095C11.7554 271.887 11.674 271.521 11.1853 270.516C10.8121 269.742 10.303 269.091 9.6379 268.541C9.14245 268.127 8.05653 267.57 7.41855 267.394C6.82809 267.231 5.2535 267.197 4.63589 267.333Z" fill="black"/>
<path d="M38.5709 267.896C36.4737 268.466 35.0417 269.926 34.5666 271.975C34.4376 272.545 34.4376 273.713 34.5666 274.283C35.0009 276.163 36.2972 277.595 38.1297 278.233C38.7541 278.451 38.8084 278.457 39.8265 278.457C40.8445 278.457 40.8988 278.451 41.5232 278.233C43.3557 277.595 44.652 276.163 45.0864 274.283C45.1407 274.039 45.1882 273.523 45.1882 273.129C45.1882 272.736 45.1407 272.22 45.0864 271.975C44.6453 270.095 43.3421 268.649 41.5232 268.032C40.9463 267.835 40.7835 267.808 39.9622 267.787C39.2224 267.774 38.951 267.794 38.5709 267.896Z" fill="black"/>
<path d="M73.2049 268.31C70.5784 268.622 68.6576 271.032 68.9495 273.645C69.2481 276.313 71.6439 278.24 74.2773 277.942C76.9446 277.643 78.8721 275.247 78.5734 272.613C78.2748 269.932 75.8519 267.998 73.2049 268.31Z" fill="black"/>
<path d="M107.086 268.853C106.176 268.996 105.294 269.45 104.649 270.102C103.808 270.957 103.407 271.941 103.407 273.129C103.407 274.317 103.808 275.301 104.656 276.156C106.04 277.561 108.199 277.84 109.916 276.822C110.432 276.509 111.076 275.871 111.395 275.335C112.196 273.991 112.196 272.274 111.389 270.91C111.076 270.394 110.438 269.749 109.902 269.43C109.108 268.955 107.948 268.717 107.086 268.853Z" fill="black"/>
<path d="M141.19 269.369C140.342 269.498 139.568 269.885 138.978 270.475C138.245 271.208 137.871 272.104 137.871 273.129C137.871 274.154 138.245 275.05 138.978 275.783C139.711 276.516 140.607 276.889 141.631 276.889C142.656 276.889 143.552 276.516 144.285 275.783C145.018 275.05 145.391 274.154 145.391 273.129C145.391 271.453 144.292 269.993 142.67 269.511C142.283 269.396 141.516 269.321 141.19 269.369Z" fill="black"/>
<path d="M174.759 270.007C173.286 270.408 172.37 271.582 172.349 273.095C172.343 273.795 172.465 274.229 172.831 274.84C173.293 275.607 174.019 276.095 175.01 276.306C175.532 276.415 175.6 276.415 176.123 276.306C177.114 276.095 177.84 275.607 178.302 274.84C178.655 274.249 178.783 273.795 178.783 273.129C178.783 271.005 176.795 269.457 174.759 270.007Z" fill="black"/>
<path d="M208.843 270.516C207.764 270.807 207.044 271.595 206.841 272.722C206.692 273.509 206.997 274.432 207.601 275.03C208.198 275.634 209.121 275.939 209.909 275.79C211.117 275.566 211.938 274.745 212.162 273.536C212.311 272.756 212.006 271.826 211.415 271.235C211.035 270.855 210.689 270.658 210.133 270.516C209.657 270.393 209.311 270.393 208.843 270.516Z" fill="black"/>
<path d="M242.941 271.025C242.303 271.188 241.76 271.636 241.475 272.24C241.108 273.027 241.292 274.039 241.916 274.656C242.751 275.478 244.122 275.478 244.957 274.656C245.099 274.514 245.303 274.222 245.398 274.018C245.764 273.231 245.581 272.219 244.957 271.602C244.454 271.113 243.586 270.862 242.941 271.025Z" fill="black"/>
<path d="M276.828 271.588C276.496 271.697 275.926 272.281 275.824 272.627C275.634 273.265 275.77 273.774 276.251 274.249C276.598 274.602 276.944 274.758 277.371 274.758C278.213 274.758 279 273.971 279 273.129C279 272.701 278.844 272.355 278.491 272.009C278.016 271.527 277.46 271.391 276.828 271.588Z" fill="black"/>
</svg>
